<svg width="165" height="165" viewBox="0 0 165 165" fill="none" xmlns="http://www.w3.org/2000/svg">
<g clip-path="url(#clip0_204_997)">
<circle cx="82.5" cy="82.5" r="82.5" fill="#16304A"/>
<circle cx="82.5" cy="82.5" r="80.4757" fill="#EADEC0"/>
<circle cx="82.5001" cy="82.5001" r="77.6186" fill="white" stroke="#C09300" stroke-width="1.03504"/>
<path d="M63.9062 99.8047C64.3437 99.9922 64.8307 100.026 65.0195 100.02" stroke="#8C8B8E" stroke-width="0.15"/>
<path d="M66.4648 100.02C66.9648 100.02 67.5195 100.02 67.7344 100.02" stroke="#8C8B8E" stroke-width="0.15"/>
<path d="M48.7889 36.9893C61.7753 27.6693 76.5597 24.5224 92.3212 27.0586C106.769 29.3836 120.323 38.328 128.789 50.2021C135.118 59.1216 138.586 69.7535 138.735 80.6885L138.199 81.2314C137.989 79.8614 137.815 79.1552 137.354 77.7471C137.371 77.6081 137.369 77.3853 137.354 77.127C137.338 76.846 137.309 76.5122 137.275 76.1768C137.207 75.5067 137.121 74.8221 137.088 74.5283V74.5254L136.963 73.6621C136.647 71.5835 136.165 69.1131 135.592 67.2412L135.239 66.0625C134.829 64.3361 133.433 60.8703 132.542 59.0742L132.371 58.7383L131.92 57.835H131.919C131.513 57.0009 130.754 55.6013 129.949 54.2354C129.246 53.0411 128.505 51.8662 127.933 51.1162L127.7 50.8223L127.002 49.8643L127.001 49.8623L126.415 49.1006C125.26 47.6094 124.186 46.3 122.872 44.9424L122.193 44.2588L121.365 43.4297H121.364C119.489 41.5821 117.486 39.869 115.37 38.3037L114.676 37.7871L114.674 37.7861L113.678 37.0898C111.43 35.5374 109.659 34.4457 107.043 33.1484L107.041 33.1475L106.292 32.7959C103.277 31.3039 101.165 30.6217 98.0145 29.6318H98.0135L97.3358 29.4287H97.3319C94.237 28.6057 91.9183 28.1759 88.7137 27.8086L88.1532 27.7363L87.7186 27.6865C85.3971 27.4417 80.9098 27.2924 78.8837 27.5059L78.7762 27.5L78.7714 27.6016L78.7762 27.499L78.7626 27.501C75.5335 27.7751 73.0622 28.0101 69.8485 28.6914L69.8427 28.6924L69.2294 28.8623C66.1167 29.6891 63.5701 30.434 60.6376 31.7451L60.0009 32.0195L59.9989 32.0215C57.1406 33.3413 55.4281 34.1433 53.0145 35.6191L51.9315 36.2969L51.9257 36.3008L51.4989 36.6113C49.4172 37.8876 46.1424 40.5262 44.3563 42.1797L43.8964 42.5977C42.1033 44.2519 39.7164 46.8022 38.2889 48.8115L37.8749 49.3789C36.8203 50.7908 34.8865 53.4826 34.1014 55.0771C34.0428 55.1812 33.9052 55.4096 33.787 55.6328C33.7275 55.7452 33.6708 55.8596 33.6298 55.9609C33.6093 56.0115 33.5918 56.0607 33.58 56.1055C33.5706 56.141 33.5643 56.1784 33.5634 56.2139C33.3707 56.2728 33.1914 56.3283 33.035 56.3896C32.855 56.4603 32.6949 56.5428 32.5731 56.6602C32.3225 56.9016 32.2634 57.255 32.4003 57.8164C32.2344 58.3632 31.9199 59.1384 31.5848 59.9268C31.4155 60.3251 31.2412 60.7269 31.08 61.1025L30.6522 62.1221L30.6512 62.127L30.4677 62.6484C29.6606 64.4471 28.6521 68.4732 28.1512 70.4482L28.1503 70.4551L28.0555 70.9873C27.8968 71.6335 27.7704 72.2384 27.6405 72.8896C27.2215 72.9015 26.803 72.929 26.3553 72.9912C28.8112 58.5106 36.8693 45.5766 48.7889 36.9893Z" fill="#C0A200" stroke="#C09300" stroke-width="0.203202"/>
<path d="M78.8885 27.6083C81.0365 27.3807 85.9973 27.564 88.1403 27.8373L88.7027 27.91C91.9027 28.2768 94.2162 28.705 97.3063 29.5267L97.9846 29.7293C101.135 30.7191 103.241 31.399 106.249 32.8879L106.998 33.2398C109.981 34.7193 111.863 35.9306 114.615 37.869L115.31 38.3853C117.422 39.9477 119.422 41.6577 121.293 43.5019L122.122 44.331C123.987 46.1663 125.333 47.8472 126.92 49.9239L127.622 50.8873C128.795 52.2908 131.02 56.2189 131.829 57.8803L132.281 58.7856C133.151 60.4447 134.709 64.2637 135.142 66.0921L135.495 67.2715C136.148 69.4031 136.682 72.3174 136.987 74.5396C137.054 75.1313 137.331 77.2686 137.253 77.761C137.737 79.2429 137.905 79.9417 138.13 81.4462L138.838 80.7298C142.293 78.5301 146.8 79.3803 148.987 82.8967C149.561 83.8259 149.927 84.869 150.06 85.9535C150.688 85.5519 151.234 85.1923 151.932 84.9261C154.525 83.9359 157.492 84.6046 158.956 87.0697C158.925 87.5683 158.917 88.7581 158.832 89.1476C158.054 89.0608 158.006 88.7881 157.722 88.0735C156.54 85.0994 152.324 85.3656 150.597 87.6514C150.214 88.1578 149.626 89.1484 148.986 89.0775C148.725 88.8589 148.567 88.3925 148.585 88.0729C148.701 85.9303 148.257 83.7599 146.542 82.3092C144.293 80.4061 141.246 80.5298 139.024 82.4015C138.539 82.8095 137.586 83.6689 136.953 83.1779C136.621 82.5181 136.726 81.3599 136.607 80.6592C135.655 75.0446 129.133 72.0646 124.516 75.7668C124.159 76.0527 123.689 76.394 123.242 76.2664C122.775 75.8119 122.658 75.2291 122.221 74.7656C121.653 74.1631 120.036 74.2236 119.991 73.3245C120.12 73.1129 120.619 72.9036 120.875 72.7285C121.933 72.015 122.432 70.7174 122.125 69.4793C121.689 67.7454 119.875 67.811 119.528 66.9701C119.551 66.3609 120.169 65.6721 120.37 65.0956C121.585 61.607 119.398 58.2861 115.698 58.2737C115.259 58.27 114.823 58.332 114.403 58.458C113.846 58.6299 112.833 59.2375 112.42 59.0453C112.076 58.5874 111.982 57.7651 111.812 57.2081C111.238 55.3263 109.607 54.283 107.784 54.0625C105.854 53.8293 104.773 54.994 103.238 55.8227C103.153 55.7894 102.994 55.6461 102.961 55.5878C102.594 54.9522 102.589 54.015 102.466 53.2946C101.792 49.3578 97.5209 48.2463 94.4999 50.4102C94.0634 50.7227 93.4912 51.1145 92.9454 51.1494L92.7473 51.0671C92.539 50.347 92.6302 49.3901 92.5465 48.6348C92.2817 46.2494 90.8221 44.3763 88.7631 43.228C84.0045 40.5742 76.9398 42.0153 74.2575 46.9647C73.8159 47.7793 73.527 48.6499 73.2484 49.5299C73.0781 50.0465 72.8643 51.034 72.3338 51.2307C71.217 51.0365 70.6257 49.4375 69.9598 48.649C65.1033 42.8992 55.3532 45.9983 54.3984 53.4249C54.2094 54.8949 54.4181 55.5721 54.5465 57.0311C54.5591 57.2343 53.5518 57.7084 53.3549 57.7379C52.0443 58.1638 51.3288 58.7866 50.7464 60.0387C54.769 61.5125 60.0271 63.7352 63.2698 66.5979C65.1039 68.2168 66.4619 71.444 67.5506 73.6949C68.1972 75.0242 68.8789 76.3363 69.5948 77.6297C71.588 81.1575 74.8691 85.1807 77.7902 87.977C81.0205 87 85.0869 86.1859 88.2862 87.8085C89.2613 88.3033 90.5836 89.7176 91.4644 89.9645C94.2394 90.7423 98.9646 89.7637 100.172 93.3724C100.439 94.1712 100.315 95.1985 100.128 96.0353C98.0527 94.1427 96.5709 93.934 93.8191 94.0188C89.8333 94.1417 87.8968 95.242 84.5586 97.2019C88.6519 101.791 92.5786 103.012 97.2892 106.464C104.382 111.661 107.661 122.756 107.541 131.202C107.414 132.274 106.731 141.446 104.257 139.885C102.668 138.883 101.882 136.399 101.609 134.625C101.542 134.184 101.547 133.099 101.43 132.795C101.186 132.79 101.102 132.835 100.874 132.912L100.303 132.717C99.3125 132.075 99.0424 130.883 99.0424 130.883C99.0424 130.883 98.5135 128.517 98.517 126.95C95.1607 127.571 94.8163 124.637 95.1824 122.143C94.1493 122.132 93.3607 121.888 92.6749 121.024C91.9214 120.075 92.0399 119.165 92.1982 118.045C90.7291 117.814 88.8708 117.171 88.4186 115.583C86.7714 115.583 85.7063 114.036 85.435 112.582C83.3363 112.472 80.3574 111.577 79.9679 109.206C78.0373 109.31 76.5598 108.325 76.0256 106.436C73.8695 106.445 72.8084 105.497 72.8355 103.304C67.9083 104.965 61.6025 105.323 56.4446 105.717C53.6703 107.824 50.4201 109.659 46.849 109.816C46.4597 109.833 46.1532 109.81 45.8389 109.568C45.7176 109.338 45.7487 108.869 45.7454 108.586C43.9199 109.05 42.447 108.448 43.904 106.549C42.0183 106.385 41.3179 105.298 42.8309 103.883C46.0689 100.857 49.8271 99.4071 54.2521 99.4004C55.0943 98.6365 55.8826 97.7353 56.7132 96.9416C57.9932 95.7181 59.2838 94.72 60.7308 93.7146C60.3725 92.3281 60.3394 91.7012 60.6038 90.3142C58.5604 89.4939 57.7317 87.881 58.4244 85.7684C58.3068 85.7389 58.1901 85.7054 58.0749 85.668C56.7645 85.2295 55.9425 84.2712 56.4353 82.8888C55.8517 82.5074 55.5591 82.3139 55.0502 81.8453L54.5668 81.009C54.3035 80.2914 54.2992 78.9247 54.2992 78.9247C53.1036 78.1946 51.7057 76.8601 53.0223 75.5753C52.2401 75.2553 50.6742 74.3972 51.0559 73.2885C49.9471 72.6123 49.7634 71.9195 49.4683 71.5278C49.0548 70.9789 47.5072 71.1852 47.8825 70.0698C47.548 69.637 45.8293 69.6654 45.6625 67.8402C43.6482 67.3763 43.7447 67.2609 42.0725 66.2278C41.1386 66.82 40.2827 67.5428 40.032 68.6782C39.8054 69.7048 40.7584 71.5034 40.0653 71.9573C39.0418 72.6273 35.2634 70.9159 34.1129 74.1757C33.9888 74.5278 33.8601 75.8988 33.5594 76.0258C33.2489 76.1573 32.848 75.9823 32.5674 75.8425C31.8757 75.4977 31.2484 75.0336 30.5366 74.7217C29.1079 74.0956 27.1006 74.2962 25.6408 74.7325C23.6622 75.3238 21.6749 76.7072 20.6845 78.5557C20.5183 78.8609 20.3909 79.1856 20.305 79.5221C20.1694 80.0698 20.1007 81.6098 19.7986 81.7632C18.9471 81.6946 18.2189 81.4631 17.4373 81.3745C15.3683 81.1402 13.2113 81.6251 11.6353 83.0552C10.3799 84.1941 9.61422 85.2673 9.3886 86.9786C9.23854 88.117 9.95294 89.7247 9.6459 90.3591C9.13702 90.7561 8.59987 90.5664 8.05651 90.7531C7.38294 90.9847 6.52437 91.4832 5.9553 91.9079C5.82418 91.5927 5.87065 90.7494 5.87388 90.369C6.70591 89.7712 7.15631 89.5774 8.11953 89.2051C7.59199 85.7196 8.85593 83.2342 11.7826 81.2691C13.9188 79.8347 16.1467 79.6873 18.6174 80.1941C18.8573 79.0023 19.1975 78.2164 19.9046 77.201C21.3953 75.06 23.6681 73.5911 26.2323 73.1111C27.1829 72.9654 27.9902 72.9833 28.9449 72.9819C28.6096 72.916 28.0947 72.9235 27.7389 72.916C27.8695 72.2607 27.9965 71.6539 28.1561 71.0053L28.2501 70.4733C28.7522 68.4931 29.7583 64.4789 30.5607 62.6905L30.7467 62.1603C31.2159 60.9867 32.1748 58.9302 32.506 57.8216C32.2197 56.6893 32.7679 56.5656 33.6809 56.2848L33.6642 56.2319C33.6517 56.018 34.068 55.3437 34.1901 55.1269C34.9688 53.543 36.8992 50.8548 37.9561 49.4399L38.3706 48.8715C39.7926 46.8696 42.175 44.3245 43.9652 42.6729L44.4256 42.2547C46.2108 40.602 49.4849 37.9641 51.5586 36.6941L51.986 36.3828C55.011 34.4519 56.7756 33.6214 60.0415 32.1135L60.6779 31.839C63.6036 30.5307 66.1443 29.7874 69.2563 28.9608L69.8698 28.7909C73.0769 28.111 75.5428 27.8761 78.7712 27.602L78.8885 27.6083Z" fill="#16304A"/>
<path d="M78.8885 27.6083C81.0365 27.3807 85.9973 27.564 88.1402 27.8373C87.5022 30.9487 86.8265 34.0522 86.1131 37.1472C85.9877 37.6975 85.3039 40.3279 85.307 40.6055C83.5954 40.4076 81.8625 40.5106 80.1865 40.9099C79.8409 41.0147 79.2833 41.1659 78.9669 41.3017C77.3342 41.9159 75.9918 42.7249 74.721 43.9358C74.341 44.3509 74.0683 44.6545 73.7304 45.103C72.9021 46.3756 72.4299 47.5767 71.8804 48.9821C71.0253 47.6422 70.4793 47.033 69.1874 46.0641C68.416 45.6203 67.8706 45.319 67.0603 44.9306C64.5572 44.1491 62.7449 44.0768 60.1857 44.7461C59.8295 44.8792 59.3774 45.0353 59.0336 45.179C58.8783 45.106 58.3646 44.468 58.2641 44.3135C57.3816 42.9588 51.8093 37.5668 51.5586 36.6941L51.9859 36.3828C55.011 34.4519 56.7756 33.6214 60.0415 32.1135L60.6779 31.839C63.6036 30.5307 66.1442 29.7874 69.2563 28.9608L69.8697 28.7909C73.0769 28.111 75.5427 27.8761 78.7712 27.602L78.8885 27.6083Z" fill="#FAEDC4"/>
<path d="M60.0415 32.113C61.5234 34.5143 62.9282 37.3967 64.3603 39.8587C64.9248 40.8296 66.8652 44.0375 67.0603 44.9302C64.5572 44.1487 62.7449 44.0764 60.1857 44.7457C59.8295 44.8788 59.3774 45.0349 59.0336 45.1785C58.8783 45.1056 58.3646 44.4675 58.2641 44.3131C57.3816 42.9583 51.8093 37.5664 51.5586 36.6936L51.9859 36.3823C55.011 34.4515 56.7756 33.621 60.0415 32.113Z" fill="#FAEDC4"/>
<path d="M51.9859 36.3824C53.4319 37.9134 54.7852 39.3561 56.29 40.8261C57.0822 41.6001 59.6576 43.9722 60.1857 44.7458C59.8295 44.8789 59.3774 45.035 59.0336 45.1787C58.8783 45.1057 58.3646 44.4677 58.2641 44.3132C57.3816 42.9585 51.8093 37.5665 51.5586 36.6938L51.9859 36.3824Z" fill="#FEFEFB"/>
<path d="M78.8882 27.6083C81.0363 27.3807 85.9971 27.564 88.14 27.8373C87.502 30.9487 86.8263 34.0522 86.1129 37.1472C85.9875 37.6975 85.3037 40.3279 85.3068 40.6055C83.5952 40.4076 81.8623 40.5106 80.1863 40.9099C79.8407 41.0147 79.2831 41.1659 78.9667 41.3017C78.8925 39.5358 78.9712 37.3309 78.9722 35.5153C78.9793 32.8761 78.912 30.2373 78.771 27.602L78.8882 27.6083Z" fill="#FAEDC4"/>
<path d="M78.771 27.6019L78.8882 27.6082L79.3895 27.6852C79.522 27.9762 79.5497 28.6127 79.5663 28.95C79.7405 32.4696 79.9738 35.9887 80.0715 39.5116C80.0843 39.9735 80.1066 40.4547 80.1863 40.9098C79.8407 41.0147 79.2831 41.1659 78.9667 41.3016C78.8925 39.5358 78.9712 37.3308 78.9722 35.5152C78.9793 32.876 78.912 30.2373 78.771 27.6019Z" fill="#FEFEFB"/>
<path d="M69.8696 28.7909C73.0768 28.111 75.5426 27.876 78.7711 27.6019C78.9121 30.2373 78.9794 32.876 78.9723 35.5152C78.9713 37.3308 78.8926 39.5358 78.9668 41.3016C77.3341 41.9159 75.9917 42.7248 74.7209 43.9357C73.5013 40.4085 72.3381 36.862 71.2323 33.2977C70.9399 32.3739 69.9891 29.6173 69.8696 28.7909Z" fill="#FAEDC4"/>
<path d="M69.2563 28.9602L69.8698 28.7903C69.9893 29.6167 70.9401 32.3733 71.2325 33.2971C72.3383 36.8615 73.5014 40.4079 74.7211 43.9351C74.3411 44.3503 74.0684 44.6539 73.7304 45.1023C73.5965 44.9802 73.5153 44.8119 73.4758 44.635C72.6382 40.9306 71.3924 37.3494 70.5408 33.6438C70.1838 32.0899 69.5305 30.5459 69.2563 28.9602Z" fill="#FEFEFB"/>
<path d="M60.0415 32.1129L60.6779 31.8384C62.586 35.4818 64.9244 38.8468 67.0776 42.3455C67.4118 42.8887 69.3431 45.485 69.4016 45.8366L69.1874 46.0635C68.4161 45.6197 67.8707 45.3184 67.0603 44.9301C66.8652 44.0374 64.9249 40.8295 64.3604 39.8586C62.9282 37.3966 61.5235 34.5141 60.0415 32.1129Z" fill="#FEFEFB"/>
<path d="M88.1399 27.8369L88.7024 27.9097C91.9024 28.2764 94.2158 28.7046 97.3059 29.5263L97.9842 29.7289C101.135 30.7187 103.24 31.3986 106.248 32.8875L106.997 33.2394C109.98 34.719 111.863 35.9302 114.615 37.8686C111.783 40.4121 108.745 42.7471 105.917 45.2942C104.492 46.578 102.869 47.7601 101.463 49.0319C99.7053 47.9704 98.7938 47.8371 96.7488 47.9797C96.2113 48.1067 95.7275 48.214 95.2034 48.3918L94.0386 48.9396C93.7501 46.8448 93.401 45.5608 91.9818 43.972C91.6531 43.6338 91.3702 43.3825 91.0176 43.0716C89.7046 41.9783 88.0905 41.2785 86.4582 40.8264L85.3067 40.6051C85.3036 40.3275 85.9874 37.6971 86.1128 37.1468C86.8262 34.0518 87.5018 30.9483 88.1399 27.8369Z" fill="#FAEDC4"/>
<path d="M106.998 33.2391C109.981 34.7186 111.863 35.9299 114.615 37.8683C111.784 40.4118 108.745 42.7468 105.917 45.2939C104.492 46.5777 102.869 47.7597 101.464 49.0316C99.7059 47.9701 98.7943 47.8368 96.7493 47.9794C97.0226 47.3761 99.3411 44.056 99.7648 43.4659C102.182 40.0974 104.503 36.5304 106.998 33.2391Z" fill="#FAEDC4"/>
<path d="M88.1399 27.8369L88.7024 27.9097C91.9024 28.2764 94.2158 28.7046 97.3059 29.5263C96.9788 30.6529 96.4878 31.3161 96.0373 32.3458C94.4959 35.8685 92.8487 39.7133 91.0176 43.0716C89.7046 41.9784 88.0905 41.2785 86.4582 40.8264L85.3067 40.6051C85.3036 40.3275 85.9874 37.6971 86.1128 37.1468C86.8262 34.0518 87.5018 30.9483 88.1399 27.8369Z" fill="#FAEDC4"/>
<path d="M88.1399 27.8369L88.7024 27.9097C88.9761 28.9364 87.1899 35.5084 87.1275 36.9836C87.1231 37.0883 86.4866 40.7581 86.4582 40.8264L85.3067 40.6051C85.3036 40.3275 85.9874 37.6971 86.1128 37.1468C86.8262 34.0518 87.5018 30.9483 88.1399 27.8369Z" fill="#FEFEFB"/>
<path d="M106.248 32.887L106.998 33.2389C104.503 36.5302 102.182 40.0972 99.7645 43.4657C99.3409 44.0558 97.0223 47.3759 96.749 47.9792C96.2115 48.1062 95.7277 48.2135 95.2037 48.3913C95.0888 48.3301 95.1478 48.3732 95.0397 48.246C95.1323 47.7461 96.3434 46.2339 96.6856 45.7519C99.2175 42.1843 101.865 38.7227 104.566 35.2837C105.109 34.5937 105.857 33.6478 106.248 32.887Z" fill="#FEFEFB"/>
<path d="M97.3064 29.5264L97.9846 29.729C97.3637 30.7687 97.1074 31.8494 96.6429 32.9434C95.4609 35.7269 94.4733 38.592 93.2405 41.3554C92.9389 42.0314 92.4931 43.5378 91.9823 43.972C91.6535 43.6339 91.3706 43.3825 91.0181 43.0716C92.8491 39.7133 94.4963 35.8685 96.0378 32.3458C96.4883 31.3162 96.9792 30.6529 97.3064 29.5264Z" fill="#FEFEFB"/>
<path d="M114.615 37.8687L115.31 38.385C117.422 39.9474 119.421 41.6574 121.293 43.5016L122.122 44.3307C123.987 46.166 125.333 47.8469 126.92 49.9236C122.293 51.8479 117.633 53.691 112.941 55.4519C112.8 55.5062 112.848 55.4848 112.73 55.6102C111.253 53.5569 109.876 52.8375 107.369 52.5374C106.968 52.5705 106.566 52.6063 106.166 52.6447C105.487 52.9706 105.087 52.8832 104.058 53.5067C103.829 52.0137 103.315 50.8073 102.277 49.7058C102.027 49.4831 101.725 49.2469 101.464 49.032C102.869 47.7601 104.492 46.5781 105.917 45.2943C108.745 42.7471 111.783 40.4121 114.615 37.8687Z" fill="#FAEDC4"/>
<path d="M122.122 44.3304C123.987 46.1658 125.333 47.8467 126.92 49.9234C122.293 51.8477 117.633 53.6907 112.942 55.4517C112.8 55.5059 112.848 55.4846 112.73 55.61C111.254 53.5566 109.876 52.8373 107.369 52.5372C107.725 52.5317 108.303 52.5329 108.614 52.3384C111.932 50.2623 115.371 48.4191 118.732 46.4122C119.833 45.7551 121.1 45.0845 122.122 44.3304Z" fill="#FAEDC4"/>
<path d="M106.166 52.6447C106.221 52.2055 107.172 51.7335 107.551 51.5061C110.149 49.9467 112.88 48.6267 115.47 47.0499C116.589 46.3682 117.737 45.7244 118.844 45.0219C119.67 44.5001 120.423 43.9431 121.293 43.5016L122.122 44.3307C121.1 45.0847 119.833 45.7553 118.732 46.4125C115.371 48.4193 111.932 50.2625 108.614 52.3386C108.303 52.5331 107.725 52.5319 107.369 52.5374C106.968 52.5705 106.567 52.6063 106.166 52.6447Z" fill="#FEFEFB"/>
<path d="M114.615 37.8687L115.31 38.385L107.717 45.2101C106.81 46.0299 103.166 49.4026 102.277 49.7058C102.027 49.4831 101.725 49.247 101.464 49.032C102.869 47.7601 104.492 46.5781 105.917 45.2943C108.745 42.7471 111.783 40.4121 114.615 37.8687Z" fill="#FEFEFB"/>
<path d="M44.4254 42.2543C46.2105 40.6017 49.4847 37.9637 51.5584 36.6937C51.8091 37.5665 57.3813 42.9584 58.2638 44.3132C58.3644 44.4676 58.8781 45.1057 59.0334 45.1786C56.9168 46.1989 55.7982 47.233 54.4349 49.1732C54.2788 49.4587 54.0689 49.8165 53.9301 50.1018C53.1856 51.8963 52.8621 53.056 52.917 54.9935C51.7408 54.862 39.6272 49.5178 38.3704 48.8712C39.7924 46.8693 42.1747 44.3242 43.9649 42.6725L44.4254 42.2543Z" fill="#FAEDC4"/>
<path d="M44.4257 42.2543C46.2108 40.6017 49.485 37.9637 51.5587 36.6937C51.8094 37.5665 57.3816 42.9584 58.2641 44.3132C58.3647 44.4676 58.8784 45.1057 59.0336 45.1786C56.9171 46.1989 55.7985 47.233 54.4352 49.1732C54.1023 48.7964 53.2828 48.3303 52.8547 48.0129C50.6363 46.3682 48.2965 44.9094 46.0285 43.3366C45.5162 42.9816 44.9674 42.5394 44.4257 42.2543Z" fill="#FAEDC4"/>
<path d="M44.4255 42.2546C44.9673 42.5397 45.5161 42.9819 46.0284 43.3369C48.2963 44.9097 50.6362 46.3685 52.8546 48.0132C53.2827 48.3306 54.1022 48.7967 54.4351 49.1735C54.279 49.459 54.0691 49.8168 53.9303 50.1021C53.4154 49.7837 52.6617 49.1657 52.1478 48.7727C51.1471 48.0065 50.1406 47.2479 49.1282 46.4973C48.0822 45.7235 44.7131 43.4359 43.9651 42.6728L44.4255 42.2546Z" fill="#FEFEFB"/>
<path d="M126.92 49.9231L127.622 50.8865C128.795 52.29 131.02 56.2181 131.829 57.8795L132.281 58.7847C131.447 59.0928 129.633 59.3616 128.694 59.5415C127.267 59.8146 125.783 60.0832 124.355 60.3551C123.791 60.4622 122.24 60.6658 121.791 60.9106C121.63 60.5445 121.442 60.1752 121.266 59.815C119.936 57.8655 117.683 56.6296 115.277 56.9224C114.818 56.9783 113.749 57.2432 113.399 57.2172L113.322 57.035C113.212 56.6505 112.904 56.0017 112.73 55.6097C112.848 55.4843 112.8 55.5057 112.942 55.4514C117.633 53.6905 122.293 51.8474 126.92 49.9231Z" fill="#FAEDC4"/>
<path d="M126.92 49.9231L127.622 50.8865C127.089 51.3258 125.059 51.9771 124.268 52.2786C121.581 53.2918 118.92 54.3732 116.288 55.5219C115.435 55.8909 113.853 56.3191 113.322 57.035C113.212 56.6505 112.904 56.0017 112.73 55.6097C112.848 55.4843 112.8 55.5057 112.942 55.4514C117.633 53.6905 122.293 51.8474 126.92 49.9231Z" fill="#FEFEFB"/>
<path d="M121.266 59.8151C124.718 59.2362 128.389 58.3031 131.829 57.8796L132.281 58.7849C131.447 59.093 129.633 59.3618 128.694 59.5416C127.266 59.8147 125.783 60.0834 124.354 60.3553C123.791 60.4623 122.239 60.6659 121.791 60.9108C121.63 60.5446 121.442 60.1754 121.266 59.8151Z" fill="#FEFEFB"/>
<path d="M38.3706 48.8708C39.6274 49.5174 51.7411 54.8616 52.9172 54.9931C52.9784 55.415 53.1046 55.8856 52.9607 56.2642C52.7646 56.4107 52.7727 56.3964 52.5291 56.4434C50.9553 57.0028 50.111 58.0336 49.3811 59.4725C45.909 58.0643 42.2036 57.1251 38.5045 56.5291C36.9912 56.2853 35.2283 56.3137 33.6809 56.2841L33.6642 56.2312C33.6516 56.0173 34.068 55.343 34.1901 55.1262C34.9688 53.5423 36.8992 50.8541 37.956 49.4392L38.3706 48.8708Z" fill="#FAEDC4"/>
<path d="M38.3705 48.8708C39.6273 49.5174 51.7409 54.8616 52.9171 54.9931C52.9782 55.415 53.1044 55.8856 52.9606 56.2642C52.7645 56.4107 52.7726 56.3964 52.529 56.4434C51.7149 55.8317 48.3635 54.3136 47.2693 53.8127L40.839 50.8462C40.259 50.5838 38.306 49.7999 37.9559 49.4392L38.3705 48.8708Z" fill="#FEFEFB"/>
<path d="M34.1901 55.127C34.6617 55.3147 35.8462 55.7443 36.1447 56.0826C35.8925 56.3228 34.1769 56.1968 33.6642 56.232C33.6516 56.018 34.068 55.3438 34.1901 55.127Z" fill="#FEFEFB"/>
<path d="M132.281 58.7854C133.15 60.4445 134.709 64.2635 135.142 66.0919L135.495 67.2713C135.064 67.3886 131.832 67.4071 131.066 67.4276C129.21 67.4776 127.211 67.5749 125.344 67.608C124.875 67.6162 123.174 67.5946 122.89 67.7017C122.56 67.3187 122.287 67.0791 121.913 66.7406L121.33 66.3821C122.36 64.7459 122.271 62.7121 121.791 60.9113C122.239 60.6664 123.791 60.4628 124.354 60.3557C125.783 60.0839 127.266 59.8152 128.693 59.5421C129.632 59.3623 131.447 59.0935 132.281 58.7854Z" fill="#FAEDC4"/>
<path d="M121.913 66.7405C122.249 66.4319 123.423 66.506 123.924 66.4902C127.617 66.3727 131.463 66.404 135.142 66.0919L135.495 67.2713C135.064 67.3885 131.832 67.407 131.066 67.4276C129.21 67.4776 127.212 67.5749 125.344 67.608C124.875 67.6161 123.174 67.5946 122.89 67.7017C122.56 67.3186 122.288 67.0791 121.913 66.7405Z" fill="#FEFEFB"/>
<path d="M30.7467 62.16C31.8961 62.2712 33.1748 62.3088 34.3424 62.4181C35.1534 62.4939 37.1633 62.7881 37.8497 62.6534C38.4329 62.8328 39.3074 62.9143 39.5608 63.2722C39.5072 63.4597 39.4838 63.5272 39.4054 63.7056C39.636 64.4899 40.4234 64.7486 41.1096 65.0768C39.1953 66.3025 38.5747 67.5605 38.5954 69.7907L38.684 70.6728C37.5365 70.6588 36.9922 70.6468 35.889 70.8849C34.885 70.4921 31.1505 71.0406 29.9014 71.0822C29.4125 71.0985 28.7978 71.2324 28.2699 71.1639L28.1561 71.005L28.2502 70.473C28.7523 68.4928 29.7584 64.4786 30.5608 62.6902L30.7467 62.16Z" fill="#FAEDC4"/>
<path d="M28.2502 70.4729C30.5785 70.3616 32.9753 70.0832 35.3103 69.9493C36.3228 69.8914 37.5993 69.7282 38.5954 69.7906L38.684 70.6727C37.5365 70.6587 36.9922 70.6467 35.889 70.8848C34.885 70.492 31.1505 71.0405 29.9014 71.0821C29.4125 71.0984 28.7978 71.2323 28.2699 71.1638L28.1561 71.0049L28.2502 70.4729Z" fill="#FEFEFB"/>
<path d="M30.7465 62.16C31.8958 62.2712 33.1745 62.3088 34.3421 62.4181C35.1531 62.4939 37.163 62.7881 37.8494 62.6534C38.4326 62.8328 39.3072 62.9143 39.5606 63.2722C39.5069 63.4597 39.4836 63.5272 39.4051 63.7056C38.4623 63.7143 31.4723 62.9767 30.5605 62.6902L30.7465 62.16Z" fill="#FEFEFB"/>
<path d="M135.495 67.2711C136.148 69.4027 136.682 72.317 136.987 74.5392C136.287 74.6638 135.459 74.4897 135.014 74.8837C131.101 71.9956 128.074 71.9805 123.916 74.3444C123.434 73.9022 123.053 73.6057 122.529 73.2085C123.914 71.528 124.009 69.5586 122.89 67.7015C123.174 67.5944 124.875 67.616 125.344 67.6078C127.212 67.5747 129.211 67.4774 131.066 67.4274C131.832 67.4069 135.064 67.3884 135.495 67.2711Z" fill="#FAEDC4"/>
<path d="M28.1558 71.0044L28.2696 71.1634C28.7975 71.2318 29.4122 71.0979 29.9011 71.0817C31.1502 71.04 34.8847 70.4916 35.8887 70.8844C34.5173 71.4759 33.2893 72.3687 32.7242 73.8121C32.6604 73.9781 32.6015 74.1459 32.5476 74.3152C31.4121 73.576 30.326 73.0503 28.9447 72.981C28.6094 72.9152 28.0945 72.9227 27.7386 72.9152C27.8693 72.2598 27.9963 71.6531 28.1558 71.0044Z" fill="#FAEDC4"/>
<path d="M32.5058 57.821C32.94 58.0482 33.1512 58.1588 33.6256 58.3223C33.0788 58.8651 32.9707 59.2916 33.6522 59.8053C34.4852 60.4332 35.5189 60.6903 36.4532 61.1084C36.9301 61.3171 36.468 61.8367 36.9618 62.1474C37.2495 62.3531 37.5365 62.4906 37.8494 62.6532C37.163 62.7879 35.1531 62.4937 34.3421 62.4179C33.1745 62.3086 31.8958 62.271 30.7465 62.1598C31.2157 60.9861 32.1746 58.9297 32.5058 57.821Z" fill="#FAEDC4"/>
<path d="M135.014 74.883C135.458 74.489 136.286 74.6631 136.987 74.5386C137.053 75.1303 137.33 77.2676 137.252 77.7599C136.647 76.4999 136.042 75.7913 135.014 74.883Z" fill="#FEFEFB"/>
<path d="M87.3844 88.4185C88.2501 88.7443 89.7487 90.0637 90.6511 90.6351C89.9848 91.1709 89.7072 91.3534 89.2657 92.1004C89.2596 92.6622 89.2604 93.1617 89.2852 93.7225C89.1793 93.7548 88.7058 93.9062 88.6254 93.9168C87.4659 94.5343 86.2211 94.957 85.033 95.6326C83.2505 96.6462 81.6962 97.8723 79.9387 98.9241C73.9377 102.516 68.3365 103.552 61.4319 104.148C60.1492 104.252 58.8679 104.371 57.5881 104.505C57.1187 104.554 55.9448 104.723 55.5288 104.731C54.3966 104.978 50.6713 105.78 49.7039 105.542C49.6155 105.442 49.486 105.133 49.4206 104.995C49.1487 104.787 49.1761 104.758 49.2968 104.483C49.9591 103.654 50.2446 103.166 51.1533 102.578C51.2291 102.439 51.5508 102.218 51.6971 102.105L51.8464 101.942C51.9887 101.7 52.2614 101.464 52.468 101.263C53.3489 100.68 54.8363 100.256 55.512 99.6436C57.3063 98.017 58.6988 96.3958 60.8347 95.1153C63.0091 93.8115 65.2386 93.256 67.5899 92.4293L74.4433 89.9509C78.6165 89.0089 83.0562 86.7896 87.3844 88.4185Z" fill="#FEFEFB"/>
<path d="M70.1953 95.5469C68.1835 95.6641 66.5039 95.9375 65.9179 96.6016C65.4492 97.1328 66.1914 97.6432 66.621 97.832" stroke="#C0CDD1" stroke-width="0.25"/>
<path d="M67.9688 97.4414C66.9466 97.6888 64.9023 98.293 64.9023 98.7305C64.9023 99.168 65.4753 99.1602 65.7617 99.1016" stroke="#C0CDD1" stroke-width="0.25"/>
<path d="M74.7657 95.7227C73.4962 96.6797 71.9532 98.2617 72.129 98.5547C72.2696 98.7891 72.9558 98.4049 73.2813 98.1836" stroke="#C0CDD1" stroke-width="0.25"/>
<path d="M71.1327 99.1016C69.5702 99.1406 67.578 99.3359 67.4217 99.1016C67.2967 98.9141 67.9035 98.5807 68.2225 98.4375" stroke="#C0CDD1" stroke-width="0.25"/>
<path d="M76.7175 98.3206C77.9607 97.5082 79.0326 96.5088 80.3209 95.7456C82.2483 94.5981 84.4916 94.0279 86.5641 93.1647C87.4579 92.7924 88.4106 92.5165 89.2773 92.0898C89.2862 92.3898 89.3435 93.4612 89.2773 93.7109C87.9292 94.2397 86.4545 94.8248 85.033 95.6332C83.2505 96.6468 81.6962 97.8729 79.9387 98.9247C73.9377 102.516 68.3365 103.553 61.4319 104.148C60.1492 104.252 58.8679 104.372 57.5881 104.505C57.1187 104.555 55.9448 104.724 55.5288 104.732C54.3966 104.979 50.6713 105.78 49.7039 105.543C49.6155 105.442 49.486 105.134 49.4206 104.996C49.1487 104.788 49.1761 104.758 49.2968 104.483C49.9591 103.654 50.2446 103.167 51.1533 102.579C51.2291 102.44 51.5508 102.219 51.6971 102.106L51.8464 101.943L52.3499 102.304C52.0187 102.94 53.2118 102.704 53.5523 102.611C54.2505 103.408 56.0059 102.354 56.2697 101.533C56.7724 102.032 58.0862 101.07 58.5513 100.719C61.1352 98.77 64.9246 101.644 67.749 99.9346C69.4925 100.683 71.7639 99.3941 71.7639 99.3941C72.4092 99.3784 74.1774 99.6482 74.3878 98.865C74.8475 99.2549 76.2413 98.6255 76.7175 98.3206Z" fill="#C0CDD1"/>
<path d="M51.1533 102.579C51.5299 102.121 51.7237 101.985 52.3965 103.008C52.1892 103.562 50.9857 104.057 50.5947 104.499C50.143 104.892 50.0188 104.945 49.4206 104.996C49.1487 104.788 49.1761 104.759 49.2968 104.484C49.9591 103.654 50.2446 103.167 51.1533 102.579Z" fill="#DBE1E1"/>
<path d="M50.5949 104.499L50.7706 104.626C52.2581 104.596 54.0509 104.74 55.529 104.731C54.3968 104.978 50.6715 105.78 49.704 105.542C49.6156 105.442 49.4862 105.134 49.4208 104.996C50.019 104.945 50.1432 104.892 50.5949 104.499Z" fill="#A7BAC0"/>
<path d="M50.5949 104.499L50.7706 104.626C50.208 105.194 50.2489 105.149 49.704 105.542C49.6156 105.442 49.4862 105.134 49.4208 104.996C50.024 104.887 50.0785 104.819 50.5949 104.499Z" fill="#31556C"/>
<path d="M75.9244 97.0544C75.2213 97.699 74.295 98.7307 74.5069 99.0774" stroke="#C0CDD1" stroke-width="0.25"/>
<path d="M86.0497 89.8474C86.9705 89.8625 87.6923 90.4329 88.2792 91.1022L88.1855 91.1396C87.4727 90.7728 87.4784 91.4279 86.8135 91.7059C86.0596 91.8967 84.9824 92.0294 84.5838 91.1855C84.5212 90.4229 85.4305 90.0295 86.0497 89.8474Z" fill="#16304A"/>
<mask id="path-55-inside-1_204_997" fill="white">
<path d="M69.823 92.5696C69.9074 92.5797 69.8555 92.5675 69.9699 92.6314C68.945 93.2351 66.8209 94.0814 67.2031 95.5069L67.0902 95.5065C66.433 94.092 68.83 93.0327 69.823 92.5696Z"/>
</mask>
<path d="M69.823 92.5696C69.9074 92.5797 69.8555 92.5675 69.9699 92.6314C68.945 93.2351 66.8209 94.0814 67.2031 95.5069L67.0902 95.5065C66.433 94.092 68.83 93.0327 69.823 92.5696Z" fill="#616062"/>
<path d="M69.823 92.5696L69.8529 92.3214L69.7821 92.3128L69.7174 92.343L69.823 92.5696ZM69.9699 92.6314L70.0968 92.8468L70.4726 92.6254L70.0917 92.413L69.9699 92.6314ZM67.2031 95.5069L67.2023 95.7569L67.5293 95.758L67.4446 95.4421L67.2031 95.5069ZM67.0902 95.5065L66.8634 95.6118L66.9304 95.7559L67.0893 95.7565L67.0902 95.5065ZM69.823 92.5696L69.7931 92.8178C69.8051 92.8192 69.8147 92.8203 69.8213 92.821C69.8291 92.8219 69.83 92.822 69.8294 92.8219C69.8281 92.8217 69.8189 92.8204 69.8063 92.8167C69.792 92.8126 69.7795 92.8072 69.7696 92.802C69.7621 92.7981 69.7574 92.7949 69.7607 92.797C69.762 92.7979 69.7634 92.7988 69.7663 92.8007C69.769 92.8024 69.7724 92.8046 69.7763 92.8071C69.7928 92.8176 69.8151 92.8313 69.8482 92.8497L69.9699 92.6314L70.0917 92.413C70.0675 92.3995 70.0535 92.3908 70.0448 92.3853C70.0355 92.3793 70.0408 92.3827 70.0301 92.3759C70.0254 92.3728 70.0142 92.3657 70.0008 92.3587C69.9621 92.3385 69.9277 92.331 69.9016 92.3272C69.8898 92.3254 69.8625 92.3225 69.8529 92.3214L69.823 92.5696ZM69.9699 92.6314L69.8431 92.4159C69.5894 92.5653 69.2796 92.7231 68.9305 92.9161C68.5902 93.1043 68.2278 93.3182 67.9075 93.562C67.2801 94.0394 66.7282 94.7008 66.9617 95.5716L67.2031 95.5069L67.4446 95.4421C67.2959 94.8875 67.6148 94.413 68.2102 93.9599C68.5012 93.7385 68.8382 93.5385 69.1725 93.3537C69.498 93.1737 69.838 92.9992 70.0968 92.8468L69.9699 92.6314ZM67.2031 95.5069L67.204 95.2569L67.0911 95.2565L67.0902 95.5065L67.0893 95.7565L67.2023 95.7569L67.2031 95.5069ZM67.0902 95.5065L67.3169 95.4011C67.1872 95.1221 67.2069 94.8695 67.3253 94.6249C67.4492 94.3688 67.6845 94.1175 67.9914 93.8785C68.6056 93.4 69.4242 93.0314 69.9287 92.7962L69.823 92.5696L69.7174 92.343C69.2289 92.5708 68.3524 92.9635 67.6841 93.484C67.3498 93.7445 67.047 94.0522 66.8753 94.4071C66.698 94.7733 66.6645 95.1836 66.8634 95.6118L67.0902 95.5065Z" fill="#C0CDD1" mask="url(#path-55-inside-1_204_997)"/>
<path d="M48.8674 60.6409C52.9754 61.9401 58.8475 64.4964 62.1827 67.3C64.1781 68.9774 65.7488 72.9695 66.9583 75.3409C68.3232 78.0368 69.9165 80.6105 71.7212 83.0343C72.4655 84.0219 73.2647 84.9668 74.1153 85.8645C74.6056 86.3862 76.0368 87.8228 76.3607 88.3568L76.2853 88.4775C75.2929 88.9453 73.845 89.3984 72.3437 89.8828C70.8423 90.3672 67.7991 91.4931 67.9056 90.8984C67.435 90.8463 67.9665 90.2142 68.0503 90.1568C66.4244 89.1634 65.6896 88.3048 66.8715 86.5453C65.9733 86.1779 61.3181 81.9815 64.4069 81.6251C62.1944 79.5856 60.1496 78.2988 62.9463 76.8924C60.2958 75.777 57.5163 73.8906 59.8643 71.1962C57.9975 71.0632 53.919 69.9856 56.4018 67.9098C54.6457 67.4529 51.6031 66.0834 54.6792 65.296C52.1831 64.815 50.1747 64.3205 52.2132 62.9444C50.5877 62.3768 49.7331 62.1649 48.8674 60.6409Z" fill="#A7BAC0"/>
<path d="M48.8674 60.6409C52.9754 61.9401 58.8475 64.4964 62.1827 67.3C64.1781 68.9774 65.7488 72.9695 66.9583 75.3409C68.3232 78.0368 69.9165 80.6105 71.7212 83.0343C72.4655 84.0219 73.2647 84.9668 74.1153 85.8645C75.0494 86.8583 76.5624 88.4361 76.5624 88.4361L73.3203 89.7461C73.3203 89.7461 73.1045 89.5976 72.2639 88.4361C71.165 86.9171 70.1994 85.3356 69.2075 83.7449C68.7877 83.0717 68.477 82.2786 68.0698 81.6022C67.1296 80.0398 66.2367 78.4796 65.4479 76.8328C64.3132 74.4092 63.4161 71.4595 61.9579 69.2192C61.3678 68.3126 59.5506 66.8501 58.6516 66.2935C57.5919 65.6376 53.1954 62.7578 52.2132 62.9444C50.5877 62.3768 49.7331 62.1649 48.8674 60.6409Z" fill="#DBE1E1"/>
<path d="M82.9335 98.3167L83.5974 97.8589C85.8816 100.484 87.3542 101.515 90.2921 103.326C92.6553 104.847 95.2689 106.203 97.4712 107.963C100.425 110.324 102.351 114.168 103.804 117.593C104.159 118.43 105.73 122.694 105.265 123.336C104.519 123.421 103.808 121.748 103.529 121.178C101.458 122.447 100.962 119.655 100.601 118.166C98.3005 118.813 98.0426 117.393 97.9512 115.523C96.741 115.325 96.5251 114.559 96.3323 113.347C94.4016 113.641 91.7765 112.493 92.7309 110.36C90.7228 110.45 88.2301 110.232 88.4917 107.872C86.7591 108.087 84.8661 107.885 84.788 105.886C84.08 105.434 81.3904 106.657 82.5302 103.425C81.9348 103.845 81.0904 104.354 80.693 104.077C79.6101 103.322 79.4515 102.052 78.7937 100.945C80.3236 100.114 81.5434 99.3587 82.9335 98.3167Z" fill="#C0CDD1"/>
<path d="M82.9333 98.3167L83.5972 97.8589C85.8814 100.484 87.354 101.515 90.2919 103.326C92.6551 104.847 95.2687 106.203 97.471 107.963C100.425 110.324 102.351 114.168 103.804 117.593C104.159 118.43 105.73 122.694 105.264 123.336C104.519 123.421 103.808 121.748 103.529 121.178C103.622 121.117 103.687 121.096 103.67 121.024C103.489 120.248 102.571 117.776 102.272 117.089C101.468 115.243 100.033 111.934 98.7977 110.435C95.1242 105.978 88.4458 104.52 84.4125 100.362C83.6137 99.5377 83.5417 99.2179 82.9333 98.3167Z" fill="#A7BAC0"/>
<path d="M92.1263 113.497L92.2815 113.696C92.8322 114.053 94.8819 114.864 94.9908 115.118C95.7175 115.396 95.6122 114.978 95.93 115.203C95.9857 115.517 95.9656 115.671 95.9508 115.993C96.8298 117.506 97.3522 118.401 98.5463 119.676C98.9384 119.737 99.3369 119.76 99.6659 119.962C100.011 120.539 99.229 125.259 98.6775 125.921C98.2756 126.404 96.1273 125.711 96.0121 124.953C95.3712 123.152 96.3234 121.227 96.6935 119.494C95.688 120.845 94.7618 122.247 93.2882 119.957C92.7692 119.15 93.2055 118.054 93.4676 117.179C92.4669 117.161 89.7533 116.809 89.483 115.655C89.644 115.47 89.5458 115.545 89.8293 115.488L90.5746 114.976L90.5639 114.682C91.2287 114.229 91.525 114.043 92.1263 113.497Z" fill="#3A6178"/>
<path d="M93.4676 117.179C92.4669 117.161 89.7533 116.809 89.483 115.654C89.644 115.47 89.5458 115.545 89.8293 115.488L89.7956 115.557C89.7419 115.664 89.763 115.624 89.6911 115.738C90.1327 116.618 91.3966 116.732 92.2748 116.898C92.5664 116.953 93.5217 116.853 93.606 117.149C93.809 118.549 94.1211 118.835 95.3867 119.268C95.7419 119.148 96.6524 118.715 96.7959 119.191L96.6935 119.494C95.688 120.845 94.7618 122.247 93.2882 119.957C92.7692 119.15 93.2055 118.054 93.4676 117.179Z" fill="#31556C"/>
<path d="M92.1264 113.497L92.2816 113.696C91.9886 113.915 90.8137 114.849 90.5747 114.976L90.564 114.682C91.2288 114.229 91.5251 114.043 92.1264 113.497Z" fill="#1F3F57"/>
<path d="M94.9908 115.118C95.7175 115.396 95.6122 114.978 95.93 115.203C95.9857 115.517 95.9656 115.671 95.9508 115.993C95.5946 115.711 95.2576 115.483 94.9908 115.118Z" fill="#1F3F57"/>
<path d="M57.8103 78.4424C58.5193 78.4505 59.0608 78.48 59.7673 78.5438L60.0051 78.6078C60.354 79.3365 60.29 80.195 60.8023 80.9517C60.9553 81.1779 62.2539 82.5302 62.2535 82.5566C62.2391 83.3595 62.1515 83.7366 62.438 84.5004C62.9023 85.7258 63.9698 86.5526 64.9963 87.2991L64.6472 87.8868C64.6749 88.1223 64.7535 88.6423 64.734 88.852C64.4889 88.7403 64.7381 88.2778 64.0909 87.7844L64.0321 87.8836C63.8393 88.1241 63.7269 88.2867 63.49 88.4812L62.2621 88.9983L62.206 89.0613C59.6103 89.9682 57.7963 87.3022 59.679 85.8324C59.8848 85.3226 60.1953 85.4459 60.3308 84.9743C59.959 85.0603 59.633 85.1125 59.2583 85.1732C58.0485 84.6959 57.6323 84.5065 57.1483 83.2556C57.5817 82.8801 57.8678 82.695 58.3514 82.3798C58.2511 82.2514 58.2297 82.2463 58.1035 82.1394C56.054 82.3784 55.3772 81.0371 55.4495 79.1703C56.3231 78.8102 56.8827 78.6224 57.8103 78.4424Z" fill="#3A6178"/>
<path d="M58.5391 83.1672C59.6053 82.448 60.4087 82.3314 61.6856 82.3741C61.6968 83.1781 61.7946 83.819 62.1284 84.5672C62.0158 84.6954 62.0817 84.6489 61.9356 84.7123C61.5834 84.6664 61.2372 84.6818 60.8816 84.6845C59.9832 84.4341 59.1865 83.8241 58.5391 83.1672Z" fill="#486F88"/>
<path d="M59.6788 85.8331C59.7261 88.1519 60.5657 88.0127 62.2619 88.999L62.2058 89.062C59.6101 89.9689 57.7961 87.3029 59.6788 85.8331Z" fill="#3A6178"/>
<path d="M62.438 84.5007C62.9023 85.726 63.9697 86.5529 64.9963 87.2994L64.6472 87.8871C64.6748 88.1226 64.7535 88.6426 64.734 88.8523C64.4889 88.7405 64.738 88.278 64.0908 87.7847L64.0321 87.8838C63.9283 86.9828 62.6725 86.7851 62.438 84.5007Z" fill="#31556C"/>
<path d="M60.8817 84.6848C61.2373 84.6821 61.5835 84.6667 61.9357 84.7126C61.661 85.1302 60.1812 85.7892 59.6787 85.8327C59.8846 85.3228 60.195 85.4462 60.3306 84.9746C60.4625 84.8664 60.7169 84.7632 60.8817 84.6848Z" fill="#31556C"/>
<path d="M58.1033 82.1398C58.3971 82.0847 58.6818 81.9935 58.9523 82.0961C58.8561 82.2796 58.5542 82.3367 58.3512 82.3802C58.2508 82.2517 58.2295 82.2467 58.1033 82.1398Z" fill="#1F3F57"/>
<path d="M102.849 123.354L102.964 123.275C103.126 123.4 103.588 124.481 103.998 124.833C104.711 125.445 104.919 125.759 105.882 125.22C106.662 128.943 106.438 135.324 104.781 138.776C102.047 136.287 102.002 130.151 102.336 126.655L102.178 126.602C102.26 125.839 102.532 124.254 102.517 123.601L102.849 123.354Z" fill="#31556C"/>
<path d="M102.849 123.354C102.751 123.965 102.486 126.257 102.336 126.654L102.178 126.602C102.26 125.839 102.532 124.254 102.517 123.6L102.849 123.354Z" fill="#1F3F57"/>
<path d="M104.489 125.771C104.818 126.343 104.438 130.223 104.333 131.023C104.265 131.541 104.001 132.499 103.822 133.012L103.585 131.946C103.11 130.946 102.506 129.596 102.501 128.465C102.497 127.399 103.718 126.495 104.489 125.771Z" fill="#3A6178"/>
<path d="M44.3424 61.72C45.5584 61.4437 48.2742 61.9307 48.7247 61.6719L48.9813 62.0346C49.328 62.2977 49.7291 62.531 49.8512 62.938C49.8045 63.2006 49.7722 63.2077 49.6074 63.4123C49.6279 63.6372 49.5993 63.5322 49.7263 63.7195C50.4523 64.4155 51.6136 65.1092 52.1155 65.7385C52.2399 66.0582 52.3463 66.3681 52.4177 66.7046C52.6385 67.1 53.2051 67.7736 53.2933 67.9807C53.2313 68.2408 53.2687 68.2977 53.1053 68.4316L52.8446 68.3007L52.7578 68.3314C52.3136 68.8227 50.6839 68.6258 49.939 68.7327C49.281 68.7368 47.2405 68.7175 47.2226 67.8439C47.4971 67.3944 47.9226 67.2995 48.417 67.1016L48.4451 66.8742C46.372 66.8232 45.4606 66.6426 43.5658 65.8316C44.9415 64.8873 46.9469 64.7361 48.631 64.5037C45.575 64.1564 44.1929 65.1982 40.7913 63.4521C42.3728 62.4363 42.5902 62.3229 44.3721 61.8375L44.3424 61.72Z" fill="#3A6178"/>
<path d="M49.0842 66.7419L49.2114 66.9216C49.7592 66.86 50.2516 66.8043 50.8023 66.7795C51.6716 67.3249 52.1192 67.5548 52.7579 68.3312C52.3137 68.8225 50.684 68.6256 49.9391 68.7325C49.2811 68.7366 47.2405 68.7173 47.2227 67.8437C47.4972 67.3942 47.9227 67.2993 48.4171 67.1014L48.4451 66.874L49.0842 66.7419Z" fill="#3A6178"/>
<path d="M49.0845 66.7419L49.2117 66.9216L48.4174 67.1014L48.4454 66.874L49.0845 66.7419Z" fill="#1F3F57"/>
<path d="M49.7263 63.7195C50.4524 64.4154 51.6137 65.1092 52.1156 65.7385C52.24 66.0581 52.3464 66.368 52.4178 66.7045C52.6386 67.1 53.2052 67.7736 53.2934 67.9806C53.2314 68.2407 53.2688 68.2976 53.1054 68.4315L52.8447 68.3007L52.7579 68.3314C52.1193 67.5549 51.6716 67.3251 50.8023 66.7797C50.2516 66.8045 49.7593 66.8602 49.2114 66.9217L49.0842 66.7421C49.841 66.3999 51.0232 66.3959 51.509 66.11C51.0142 65.7013 50.528 65.2752 49.9875 64.9271L49.9842 64.8298L50.2549 64.6241C50.25 64.3836 49.8765 63.9554 49.7263 63.7195Z" fill="#31556C"/>
<path d="M52.1157 65.7385C52.2401 66.0582 52.3466 66.368 52.4179 66.7045L51.9227 66.4193C51.7425 66.3325 51.8181 66.3959 51.7002 66.2242C51.8235 65.9988 51.9335 65.9145 52.1157 65.7385Z" fill="#1F3F57"/>
<path d="M44.3427 61.72C45.5586 61.4437 48.2744 61.9307 48.7249 61.6719L48.9816 62.0346C47.2025 62.0338 46.5539 61.6828 44.3723 61.8375L44.3427 61.72Z" fill="#1F3F57"/>
<path d="M34.0842 57.6506C38.1196 56.5221 43.6719 58.7408 47.6232 59.972C47.9479 60.0799 48.0952 60.0673 48.2911 60.2831L47.9081 60.6121C47.9794 60.7771 48.0182 60.8017 48.1779 60.9061C48.488 61.1087 48.5648 61.3603 48.7251 61.6716C48.2746 61.9305 45.5588 61.4434 44.3429 61.7198C42.9168 61.9931 39.4453 61.9041 38.0058 61.3254C38.674 60.9106 39.7314 60.5292 40.503 60.3853C40.266 60.2791 39.8883 60.2388 39.6188 60.1929C37.9688 60.1803 36.1597 59.8436 34.6573 59.1501C35.43 58.8617 36.1396 58.5994 36.8147 58.1192C35.657 58.0331 35.172 58.0024 34.0842 57.6506Z" fill="#3A6178"/>
<path d="M47.6227 59.9719C47.9474 60.0798 48.0948 60.0672 48.2906 60.283L47.9076 60.612C47.9789 60.777 48.0177 60.8016 48.1775 60.906C48.4875 61.1086 48.5644 61.3602 48.7247 61.6715C48.2742 61.9304 45.5584 61.4433 44.3424 61.7197C42.9164 61.993 39.4449 61.904 38.0054 61.3252C38.6735 60.9105 39.731 60.5291 40.5025 60.3852C40.2656 60.279 39.8878 60.2387 39.6184 60.1928C41.4505 60.2001 43.0547 59.9398 45.0055 60.0422C45.9599 60.0924 47.54 60.3781 48.1047 60.3802L48.097 60.2674C47.8491 60.1879 47.8072 60.141 47.6227 59.9719Z" fill="#3A6178"/>
<path d="M47.6229 59.9719C47.9476 60.0798 48.0949 60.0672 48.2908 60.283L47.9078 60.612C47.9791 60.777 48.0179 60.8016 48.1776 60.906C48.4877 61.1086 48.5645 61.3602 48.7248 61.6715C48.3194 61.2789 47.25 61.435 46.3957 61.2921C47.3022 61.0952 47.4948 61.1501 48.4044 61.0985C46.4284 60.089 44.1085 60.1018 41.944 60.2901C41.5319 60.3259 41.059 60.3885 40.6494 60.3869L40.5027 60.3852C40.2657 60.279 39.888 60.2387 39.6185 60.1928C41.4506 60.2001 43.0549 59.9398 45.0056 60.0422C45.9601 60.0924 47.5402 60.3781 48.1049 60.3802L48.0971 60.2674C47.8492 60.1879 47.8074 60.141 47.6229 59.9719Z" fill="#1F3F57"/>
<path d="M51.249 71.8565C52.5213 71.6645 53.952 71.3109 55.2141 71.3686C55.5772 71.4419 55.6695 71.4302 56.0474 71.419C57.1874 71.9963 57.7883 72.0896 57.4619 73.4549C58.0701 75.0799 58.5586 75.7832 60.0855 76.7561L60.1007 78.3604L59.6451 78.4252C59.726 78.5282 59.6815 78.4931 59.7671 78.5437C59.0605 78.4799 58.519 78.4504 57.81 78.4423L57.7606 78.2874C56.5233 78.1905 55.3454 78.1972 54.2948 77.3783C52.7293 76.1579 55.3663 75.3241 56.2911 75.3932C56.6912 75.4231 57.1419 75.4204 57.5568 75.4292C55.3622 75.1762 54.3966 75.3495 52.527 73.9096C53.4097 73.7227 54.9089 73.6197 55.832 73.5386L55.8601 73.4187L55.9739 73.4585C53.9041 73.3088 52.9899 73.0342 51.249 71.8565Z" fill="#3A6178"/>
<path d="M57.7606 78.2874C58.4806 78.2951 59.4011 78.2794 60.1007 78.3603L59.6451 78.4251C59.726 78.5281 59.6815 78.493 59.767 78.5436C59.0605 78.4798 58.519 78.4503 57.81 78.4422L57.7606 78.2874Z" fill="#1F3F57"/>
<path d="M83.1051 108.57C83.5739 108.518 83.6698 108.516 84.1372 108.576C85.179 109.223 86.219 109.332 87.4154 109.536C88.6682 111.41 89.2136 111.193 91.2498 111.547C91.3649 112.349 91.6044 112.873 92.1265 113.498C91.5252 114.043 91.2289 114.23 90.564 114.682C88.5932 114.97 87.4199 114.632 86.3214 112.905C86.7597 112.7 88.5812 111.455 88.9628 111.127C86.2625 112.315 83.3168 111.549 81.0093 109.848C81.5919 109.556 82.4223 108.943 83.1051 108.57Z" fill="#3A6178"/>
<path d="M100.468 121.553C100.858 122.448 101.58 123.245 102.517 123.601C102.532 124.254 102.261 125.839 102.178 126.602C102.122 127.764 102.207 131.225 100.664 131.375C99.7538 131.141 99.4781 128.992 99.3834 128.189C99.1253 125.514 99.9607 123.317 99.895 121C100.094 120.824 100.362 121.31 100.468 121.553Z" fill="#3A6178"/>
<path d="M100.541 121.965C100.372 121.728 100.122 121.279 100.132 121.001C100.259 121.123 100.39 121.374 100.468 121.553C100.858 122.448 101.581 123.245 102.518 123.601C102.532 124.254 102.261 125.839 102.178 126.602C102.122 127.764 102.207 131.225 100.665 131.375C99.754 131.141 99.4782 128.992 99.3835 128.189C100.222 128.349 100.653 128.432 101.284 129.012C101.434 127.476 102.452 124.708 101.009 123.772C100.904 123.108 100.775 122.592 100.541 121.965Z" fill="#31556C"/>
<path d="M43.7909 105.282C44.7856 103.286 46.6069 102.261 48.6133 101.436C49.3147 101.148 51.4851 100.493 52.1691 100.668C52.3067 100.896 52.3634 101.026 52.4682 101.264C52.2616 101.465 51.9889 101.701 51.8466 101.943L51.6973 102.105C51.551 102.219 51.2293 102.44 51.1535 102.579C50.2448 103.167 49.9593 103.654 49.2971 104.483L49.2489 104.258C48.9183 104.267 47.3823 104.746 46.9096 104.871C45.661 105.201 45.0703 105.27 43.7909 105.282Z" fill="#3A6178"/>
<path d="M64.0322 87.8836L64.0909 87.7844C64.7381 88.2778 64.489 88.7403 64.7341 88.852C65.3069 90.158 66.0419 90.6394 66.3847 91.4295C65.4418 92.0376 63.3312 93.1975 62.1762 93.2288C61.9717 93.2343 61.6356 92.8503 61.5694 92.6395C61.1469 91.2933 61.1307 90.1751 62.2889 89.283L62.206 89.0613L62.2621 88.9984L63.4901 88.4812C63.727 88.2867 63.8394 88.1242 64.0322 87.8836Z" fill="url(#paint0_linear_204_997)"/>
<path d="M63.4898 88.4814L63.5916 88.5956C63.3043 88.8383 62.6464 89.1421 62.2887 89.2833L62.2058 89.0616L62.2619 88.9986L63.4898 88.4814Z" fill="#1F3F57"/>
<path d="M78.0158 101.216C78.1772 101.268 78.674 104.184 79.0934 104.919C77.6047 105.441 76.4335 105.731 74.841 105.518C73.7002 105.117 73.6378 104.108 73.6813 103.054C75.1098 102.508 76.6054 101.829 78.0158 101.216Z" fill="#3A6178"/>
<path d="M79.2384 105.102C80.0152 105.454 80.4017 105.491 81.1773 105.759C81.3694 105.84 81.4263 106.333 81.5342 106.5C82.0781 107.343 83.6257 107.137 84.0581 108.079L84.137 108.576C83.6696 108.516 83.5737 108.517 83.1049 108.57L83.048 108.384C82.7042 108.552 82.3331 108.658 81.9521 108.696C80.114 108.879 77.4498 108.421 77.2915 106.148C77.9338 105.813 78.5753 105.37 79.2384 105.102Z" fill="#3A6178"/>
<path d="M83.0483 108.384C83.4747 108.2 83.6004 108.171 84.0585 108.079L84.1373 108.576C83.6699 108.516 83.574 108.517 83.1052 108.57L83.0483 108.384Z" fill="#1F3F57"/>
<path d="M91.0377 91.4144C91.2878 91.1421 91.3297 91.0043 91.7348 90.9976C92.4568 90.9856 93.1804 91.0982 93.8973 91.1762C95.7385 91.3762 98.2725 91.5438 99.3251 93.3549C99.6311 93.8798 99.6443 94.257 99.7154 94.8503C99.1859 94.2157 98.751 93.8241 97.9601 93.51C97.531 93.3267 97.0547 93.1737 96.6115 93.0199C94.9558 92.7906 91.8881 92.5127 90.2249 92.4999L91.0377 91.4144Z" fill="#DDA35F"/>
<path d="M90.2249 92.4997L91.0377 91.4142C91.3219 91.5282 92.4969 91.6688 92.9091 91.7407C93.9207 91.9074 94.9237 92.1215 95.9149 92.3826L96.6115 93.0197C94.9558 92.7905 91.8881 92.5125 90.2249 92.4997Z" fill="#7D5C3A"/>
<path d="M98.2882 93.1012C98.6204 93.1313 98.7033 93.2469 98.9782 93.4686C99.2325 93.4806 99.1197 93.5149 99.3251 93.3544C99.6311 93.8793 99.6443 94.2564 99.7155 94.8498C99.1859 94.2152 98.7511 93.8236 97.9602 93.5094L98.2882 93.1012Z" fill="#B88237"/>
<path d="M95.9149 92.3822C97.1752 92.5878 97.3601 92.8591 98.2881 93.1011L97.9601 93.5094C97.531 93.3261 97.0547 93.1731 96.6115 93.0192L95.9149 92.3822Z" fill="#9F743B"/>
<path d="M53.2933 67.9803C53.3861 68.3171 53.2945 68.1943 53.5282 68.3928C53.6981 68.3628 53.8675 68.3303 54.0364 68.2949C54.4206 68.6127 54.3144 69.0904 54.3028 69.5639C54.8283 70.5104 55.3066 70.712 56.0475 71.4193C55.6695 71.4305 55.5773 71.4423 55.2142 71.3689C55.3505 71.232 55.3828 71.2783 55.6378 71.2604C55.587 71.2495 55.5362 71.2387 55.4856 71.2277C53.3567 71.3559 51.1586 71.2352 49.2898 69.8819C49.9612 69.4808 50.9571 69.127 51.6981 68.8748C51.1863 68.799 50.4901 68.7848 49.939 68.7324C50.684 68.6255 52.3136 68.8224 52.7578 68.3311L52.8446 68.3004L53.1053 68.4313C53.2687 68.2973 53.2313 68.2404 53.2933 67.9803Z" fill="url(#paint1_linear_204_997)"/>
<path d="M48.4957 105.05C49.0444 105.042 48.9275 105.95 49.9856 106.41C48.4707 107.265 47.6531 107.6 45.9744 108.046C45.1856 108.096 45.1002 107.978 44.4077 107.591C45.5765 106.527 47.0969 105.816 48.4957 105.05Z" fill="#3A6178"/>
<path d="M53.1797 105.611L53.2348 105.593L53.3177 105.65L53.227 105.756C52.3413 105.8 47.7424 107.427 48.1834 108.524C49.0789 108.436 50.562 107.869 51.4324 107.547C51.7926 107.413 52.4409 107.02 52.7012 107.015L52.6713 107.099L52.1472 107.347C50.419 108.098 48.6912 108.711 46.7971 108.822C48.9563 107.479 50.4247 106.013 53.1797 105.611Z" fill="#3A6178"/>
<path d="M100.692 77.9065C102.945 75.3577 106.666 75.8934 108.607 78.5069C109.287 79.4224 109.609 80.3563 109.853 81.4603C112.79 80.658 116.178 81.5601 118.455 83.5346C122.903 77.9183 132.331 80.5516 133.285 87.7998C136.166 87.8132 138.461 88.4986 140.072 91.0862C141.404 93.2265 141.206 95.4064 140.646 97.7583C144.398 97.9235 147.837 99.0809 149.714 102.551C151.263 100.562 153.03 99.278 155.538 101.14C155.957 101.452 156.198 101.771 156.518 102.184C156.448 102.43 156.369 102.764 156.25 102.977C155.146 102.503 154.285 101.393 153 101.507C151.047 101.68 150.66 104.055 149.589 105.22C148.929 103.568 148.391 102.159 146.903 101.075C144.013 98.9708 141.289 98.8954 137.948 99.2904C138.753 97.8119 139.511 97.4582 139.745 95.4875C140.14 92.1497 137.789 89.1175 134.365 89.0168C133.748 88.9985 133.139 89.2252 132.463 89.1645C132.095 88.8001 131.838 87.3476 131.639 86.7338C130.141 82.1128 124.012 80.2661 120.326 83.4441C119.787 83.9087 119.239 85.2671 118.753 85.4359C118.639 85.4345 118.417 85.4323 118.341 85.3542C117.758 84.7619 117.475 84.3141 116.739 83.8438C115.05 82.7659 112.863 82.1672 110.874 82.571C110.276 82.6923 109.614 83.0229 109.049 83.131C108.676 82.8171 108.574 81.86 108.474 81.378C107.969 78.9465 106.047 77.0801 103.419 77.4793C102.207 77.6635 101.721 78.3139 101.008 79.1962C99.8863 78.3751 99.0131 77.8888 97.5458 77.9475C96.1163 78.0048 94.4921 78.6339 93.4819 79.667C93.1062 80.0513 92.8248 80.5182 92.4399 80.9273L92.3907 80.9787C92.4751 80.7999 92.5641 80.6119 92.6576 80.4378C93.4299 78.9639 94.7562 77.8575 96.3442 77.3617C98.0459 76.8439 99.1856 77.1051 100.692 77.9065Z" fill="#7F98A1"/>
<path d="M49.2374 84.9691C50.4721 82.4998 51.953 81.624 54.5668 81.0089L55.0502 81.8453C53.6379 82.3391 52.2336 82.7436 51.2123 83.908C50.5838 84.6261 50.2286 85.6387 49.6192 86.3393C49.4463 86.538 47.7028 85.3564 47.4468 85.2227C44.6991 83.7891 40.5278 85.6401 39.1807 88.2825C38.7004 89.225 38.6522 90.1558 38.6892 91.1633C39.0879 91.5874 39.5546 91.9847 39.2173 92.6058C38.5734 92.9873 38.2104 92.563 37.7451 92.1251C35.1982 91.7559 33.6896 93.1608 33.3706 95.6269C33.3135 96.0688 33.322 96.9395 33.0172 97.2165C32.279 97.2191 31.4631 96.5791 30.7643 96.335C28.7967 95.6474 26.3863 96.3397 24.922 97.7926C24.2328 98.4764 23.7697 99.6811 23.3765 100.045C23.0105 99.8835 22.2843 98.9687 21.9535 98.6527C20.0126 96.7999 16.8741 97.3474 14.8285 98.7011L14.7336 98.4601C16.3061 97.2557 18.7831 96.4738 20.7365 97.0399C21.7403 97.3309 22.3757 97.8478 23.1515 98.5154C25.2598 95.536 29.0668 94.0592 32.3739 96.0162C32.7366 92.7637 34.3199 90.9975 37.7703 91.234C37.7291 89.6966 37.8282 88.6983 38.6656 87.3523C39.7013 85.6878 42.0973 84.2569 43.9773 83.8428C46.0408 83.3884 47.5185 83.8627 49.2374 84.9691Z" fill="#7F98A1"/>
<path d="M14.7333 98.4595L14.8281 98.7005C14.2661 99.1451 13.9433 99.4609 13.2782 99.725C13.8206 99.1272 14.084 98.9092 14.7333 98.4595Z" fill="#486F88"/>
<path d="M66.7798 53.2752C70.2887 53.0283 73.1008 54.6423 73.0466 58.4764C76.946 57.237 79.4113 58.7226 81.3309 62.1659C82.9281 59.4554 84.9772 57.7656 88.2449 58.9242C90.1298 52.7629 97.8258 52.2643 99.6154 58.4239C100.732 57.8657 101.764 57.5254 103.024 57.566C106.096 57.6652 108.734 60.1211 109.342 63.086C109.537 64.0358 109.488 64.8786 109.463 65.8317C111.081 65.3686 112.845 64.9766 114.432 65.7382C117.04 66.9903 117.783 70.217 116.632 72.6875C117.992 73.1528 118.82 73.8303 118.924 75.3624C118.94 75.5988 118.874 75.6585 118.725 75.804C118.056 75.8853 117.755 74.7516 117.191 74.3863C116.579 73.9902 115.526 74.0776 114.922 73.6895C114.531 72.7702 117.221 70.9109 114.948 67.6851C113.574 66.1194 111.452 66.2824 109.728 67.0966C109.513 67.1984 108.417 67.7594 108.23 67.7261C107.281 67.5573 108.114 66.3015 108.193 65.7758C108.279 65.272 108.302 65.1062 108.297 64.7384C108.27 63.0726 107.576 61.487 106.37 60.3373C104.781 58.7936 102.602 58.3296 100.549 59.3188C100.007 59.5801 99.1089 60.3267 98.5856 60.3352C98.1845 59.129 98.4647 57.9283 97.5603 56.9147C94.1987 53.148 88.9236 56.4177 89.283 60.9554C89.3072 61.2588 89.0886 61.5333 88.7336 61.4636C88.2142 61.0312 88.0953 60.6061 87.8734 59.9884C85.5813 59.1611 83.7368 60.5015 82.5936 62.4043C82.2531 62.971 81.7361 64.5249 80.9613 64.3381C80.6951 64.065 80.424 63.1831 80.2499 62.8218C78.6056 59.4086 75.4584 58.2234 72.2021 60.3755C72.0131 60.5002 71.8048 60.5366 71.5912 60.46C71.3212 59.8669 71.8558 58.4333 71.7603 57.6351C71.2495 53.3683 64.9618 53.7483 63.0787 56.7012C62.8373 57.08 62.4978 57.4549 62.0424 57.4894C61.3875 57.0298 61.966 56.1548 62.3214 55.6521C63.2506 54.3377 65.2385 53.5485 66.7798 53.2752Z" fill="#7F98A1"/>
<path d="M81.715 128.635C82.9848 130.74 84.5074 133.629 87.0513 134.25C88.119 134.51 89.2699 134.46 90.2237 133.866C91.0166 133.381 91.5722 132.589 91.7579 131.679C92.0412 130.28 91.4033 129.07 89.9029 128.692C89.5672 128.608 89.2839 128.763 89.0173 128.964L89.0427 129.06C89.4188 129.201 89.9272 129.461 90.1164 129.817C90.3794 130.31 89.9738 131.073 89.646 131.433C88.7038 132.469 87.0889 132.351 86.0957 131.49C84.4371 130.052 84.4119 127.522 86.0719 126.091C88.1332 124.315 92.2753 124.347 94.6503 125.526C94.9168 128.072 97.8181 127.895 97.8181 127.895C97.8181 127.895 97.6949 128.215 98.1141 130.648C98.5334 133.081 99.9793 133.46 99.9793 133.46C99.6628 135.204 99.2945 136.785 98.4666 138.353C97.5689 140.053 95.8191 142.153 93.9462 142.782C93.0903 143.028 92.1568 143.14 91.2867 143.317C84.9711 144.597 78.6355 147.203 74.9261 152.77C74.1449 153.942 73.5648 155.007 72.9044 156.249C68.396 155.873 62.8481 154.421 58.561 152.995C57.1158 152.515 55.5426 151.813 54.1706 151.405L54.0625 151.373C56.8809 146.478 62.1406 145.978 66.9648 144.344C74.1289 141.916 81.0808 136.733 81.715 128.635Z" fill="#7F98A1"/>
<path d="M107.896 125.266C107.896 125.266 118.135 125.904 121.011 125.266C124.136 124.574 127.083 120.48 123.585 118.176C122.88 117.71 120.858 117.515 120.52 118.434C120.845 118.937 122.087 118.272 122.719 119.261C123.533 120.397 122.994 121.325 121.892 122.027C120.003 123.228 117.786 122.342 116.733 120.465C115.254 117.826 116.859 115.323 119.259 114.083C121.156 113.103 123.432 113.023 125.421 113.717C127.666 114.46 129.546 116.502 130.596 118.557C131.616 120.55 131.525 123.427 130.792 125.548C129.455 129.414 126.607 132.137 123.033 134.021C122.246 134.436 120.48 134.261 119.546 134.347C118.608 134.432 117.576 134.502 116.652 134.717C114.315 135.264 112.036 136.034 109.846 137.015C109.05 137.365 107.23 138.214 107.23 138.214C107.23 138.214 109.272 131.157 107.896 125.266Z" fill="#7F98A1"/>
<path d="M100.689 133.672C100.916 133.594 100.762 133.666 101.007 133.672C101.123 133.975 101.007 134.972 101.007 135.907C101.007 136.968 102.286 140.472 104.018 140.734C105.751 140.996 106.664 140.256 106.925 139.517C113.868 135.796 124.895 132.929 131.785 138.015C125.369 143.427 118.636 148.126 110.765 151.203C110.355 149.553 109.648 148.2 108.433 146.973C106.108 144.624 102.666 143.275 99.4458 142.773C98.2732 142.59 96.8755 142.602 95.6858 142.589C99.0839 140.103 99.8984 137.598 100.689 133.672Z" fill="#7F98A1"/>
<path d="M71.4068 120.059C79.8088 119.401 83.1608 126.604 79.6511 133.623C77.2901 138.344 72.1249 141.744 67.2294 143.487C61.8941 145.388 56.6434 145.643 53.3879 151.061C48.4001 149.011 43.6689 146.385 39.2901 143.238C38.7679 142.856 37.8606 142.256 37.4124 141.873L37.4298 141.732L37.7054 141.564C39.8693 140.433 41.9834 140.224 44.3533 139.977C48.9936 139.493 53.7569 138.058 57.2463 134.821C60.1832 132.096 61.962 128.8 62.1233 124.754C62.7248 125.791 63.753 127.089 64.5138 128.012C65.884 129.521 67.2495 130.443 69.3069 130.66C72.5748 131.053 76.3109 127.641 73.5437 124.568C72.8177 123.762 71.3008 123.675 70.5044 124.483L70.515 124.583C71.0187 124.671 71.3375 124.554 71.8394 124.851C72.5801 125.26 72.7557 126.29 72.3034 126.99C71.4773 128.269 69.766 128.564 68.5222 127.76C67.7396 127.252 67.1969 126.448 67.0189 125.533C66.3536 122.244 68.4712 120.582 71.4068 120.059Z" fill="#7F98A1"/>
<path d="M52.0438 116.128C53.0297 116.038 54.0236 116.109 54.9868 116.337C57.2874 116.888 59.2688 118.342 60.4832 120.372C61.7121 122.458 61.7304 124.956 61.1243 127.247C60.4159 129.822 59.0218 132.156 57.0907 134C53.3163 137.672 48.946 138.718 43.9127 139.311C41.1776 139.632 39.1108 139.928 36.6929 141.35C34.0434 139.502 29.6003 135.335 27.4058 133.017C28.5721 132.495 30.0238 132.177 31.3745 131.579C33.2192 130.734 34.8911 129.556 36.306 128.102C39.1549 125.214 40.6383 121.674 40.6072 117.631C41.4169 118.594 42.1058 119.411 42.8166 120.479C43.97 122.213 44.8289 124.279 46.4342 125.653C48.2775 127.231 52.0666 126.917 53.566 124.959C55.2609 122.745 53.6462 119.728 50.7907 120.363C50.5045 120.427 50.3873 120.425 50.1973 120.687C50.4899 121.053 51.9749 120.947 52.169 122.039C52.7044 125.054 48.7828 124.824 47.2994 123.343C45.9256 121.986 45.8522 119.999 47.121 118.527C48.3788 117.067 50.1548 116.307 52.0438 116.128Z" fill="#7F98A1"/>
<path d="M95.5102 143.359C98.3007 142.946 102.588 143.897 105.011 145.288C107.739 146.854 109.341 148.401 110.229 151.414C102.7 154.469 96.5723 155.883 88.4816 156.689C84.5972 157.013 80.6925 157.007 76.8091 156.672C75.8949 156.596 74.5021 156.503 73.6511 156.33C74.6194 154.574 75.2322 153.491 76.5 151.865C80.7656 146.394 88.7874 144.026 95.5102 143.359Z" fill="#7F98A1"/>
<path d="M31.1936 111.214C32.8428 111.054 34.7375 111.433 36.1835 112.248C37.8751 113.211 39.1185 114.803 39.644 116.677C40.7139 120.529 38.2009 125.235 35.5481 127.902C33.059 130.405 30.127 131.45 26.8219 132.345C25.7177 130.982 21.403 126.071 20.9092 124.714L21.012 124.513C22.6031 121.88 23.2885 119.744 23.2039 116.65C24.0117 118.207 25.3361 119.934 27.0331 120.518C28.3072 120.961 29.8255 121.15 31.0809 120.553C32.5626 119.862 33.605 117.884 32.587 116.394C31.6297 114.993 30.3684 114.839 28.9802 115.671C29.4172 115.752 30.0785 115.843 30.4387 116.091C31.0807 116.478 30.8726 117.879 30.4733 118.335C28.8552 120.18 26.0193 118.149 25.8618 116.126C25.7515 115.138 26.0998 114.067 26.739 113.293C27.8424 111.957 29.5256 111.378 31.1936 111.214Z" fill="#7F98A1"/>
<path d="M140.445 112.495C143.908 112.063 146.109 114.099 148.234 116.503C144.461 124.526 138.604 131.65 132.165 137.674C129.534 135.511 127.003 134.85 123.685 134.376C125.374 133.593 127.085 132.141 128.386 130.82C128.737 130.425 129.067 130.011 129.376 129.582C131.882 126.135 132.296 123.513 131.67 119.465C132.794 120.894 133.576 121.766 135.202 122.912C137.954 124.854 143.456 123.751 142.571 119.548C142.281 118.175 140.566 117.022 139.153 117.502C138.53 117.714 138.315 118.265 138.052 118.818C138.579 118.653 139.321 118.456 139.774 118.799C141.04 119.757 139.847 121.367 138.612 121.518C136.698 121.79 134.9 120.324 134.653 118.403C134.173 114.676 137.305 112.962 140.445 112.495Z" fill="#7F98A1"/>
<path d="M13.3881 111.469C15.0457 111.271 17.4226 111.466 18.9022 112.265C23.507 114.752 23.0187 119.072 21.0234 123.066L20.4193 124.199C19.9414 123.498 19.4097 122.832 18.9324 122.128C17.5251 120.054 16.1581 117.816 15.011 115.588C14.7691 115.118 13.0794 111.85 13.169 111.57L13.3881 111.469Z" fill="#7F98A1"/>
<path d="M114.667 88.3327C117.507 88.2359 120.631 89.992 121.645 92.7178C121.896 93.3936 121.972 93.9477 122.072 94.6648C123.349 94.2204 124.722 94.1233 126.048 94.3834C128.069 94.7573 129.852 95.9348 130.989 97.647C132.097 99.3143 132.832 102.751 130.85 104.22C130.7 104.332 130.667 104.288 130.514 104.24C130.43 104.027 130.935 102.445 130.933 102.03C130.924 100.257 130.345 98.9335 129.291 97.6096C125.55 93.4625 121.002 96.8799 120.64 96.694C120.49 95.5398 121.064 94.8886 120.584 93.5361C119.076 89.2958 113.541 88.6484 110.09 90.8576C109.663 91.1308 108.655 91.9972 108.292 92.1108L108.156 92.0309C108.108 91.6971 108.533 91.0629 108.766 90.8255C110.264 89.2958 112.584 88.4759 114.667 88.3327Z" fill="#7F98A1"/>
<path d="M64.5312 95.1758C63.0078 95.6641 61.3672 96.8359 61.4453 97.4609C61.5234 98.0859 63.1837 98.125 63.7696 97.793" stroke="#C0CDD1" stroke-width="0.25"/>
<path d="M73.1054 92.6172C71.8945 93.2227 70.5468 93.8086 70.5664 94.8047" stroke="#C0CDD1" stroke-width="0.25"/>
<path d="M70.2538 96.6211C69.6874 97.0312 69.1796 97.3438 69.3749 97.5977C69.5311 97.8008 70.3645 97.487 70.7617 97.3047" stroke="#C0CDD1" stroke-width="0.25"/>
<path d="M20.9081 49.7674L19.7903 49.0882L22.8311 44.0835L23.9489 44.7627L22.7961 46.66L28.8571 50.3425L28.1156 51.5629L22.0547 47.8804L20.9081 49.7674ZM28.6233 43.6083L29.5581 42.3895L34.4692 42.572L33.4322 43.9241L28.6233 43.6083ZM24.0867 42.3066L24.9484 41.183L31.6137 46.2951L30.752 47.4187L24.0867 42.3066ZM25.5691 42.3849L24.5979 41.64L25.6641 40.2498C26.0341 39.7674 26.4412 39.4142 26.8852 39.1901C27.3341 38.9598 27.7896 38.8655 28.2515 38.9072C28.7072 38.9442 29.1445 39.1233 29.5634 39.4446C29.9824 39.7659 30.2719 40.1443 30.432 40.5796C30.5922 41.015 30.6192 41.4793 30.513 41.9726C30.4118 42.4595 30.1762 42.9442 29.8061 43.4267L28.7399 44.8168L27.8163 44.1085L28.846 42.7659C29.0408 42.512 29.1667 42.2557 29.2239 41.9971C29.286 41.7321 29.2759 41.4824 29.1936 41.2479C29.105 41.0086 28.9432 40.7988 28.7083 40.6187C28.4671 40.4337 28.2226 40.3318 27.9748 40.3131C27.727 40.2945 27.4832 40.3494 27.2434 40.4781C27.0084 40.6003 26.7936 40.7884 26.5988 41.0424L25.5691 42.3849ZM34.4961 39.411L33.8272 38.3804L36.566 35.6038L37.6141 36.25L34.4961 39.411ZM33.2874 35.1341L34.556 38.2396L34.7613 38.4758L35.8148 41.15L34.694 42.2862L31.2626 33.1369L40.4581 36.4427L39.3373 37.5789L36.717 36.5956L36.444 36.3768L33.2874 35.1341ZM36.2594 29.026L37.3995 28.1463L42.531 34.7967L41.3909 35.6764L36.2594 29.026ZM43.5381 34.0196L42.0845 35.1412L41.2708 34.0867L42.6959 32.9871C43.0252 32.7329 43.2926 32.4509 43.4979 32.1408C43.7033 31.8308 43.834 31.5026 43.8901 31.1562C43.9525 30.8049 43.9308 30.4427 43.8248 30.0698C43.7253 29.6919 43.5313 29.3161 43.243 28.9424C42.9546 28.5687 42.6403 28.2858 42.3 28.0936C41.9661 27.8966 41.6213 27.7837 41.2657 27.755C40.9164 27.7213 40.5658 27.7645 40.2138 27.8846C39.8618 28.0046 39.5211 28.1917 39.1918 28.4458L37.7667 29.5454L36.953 28.4908L38.4066 27.3693C39.0843 26.8463 39.7872 26.5263 40.5152 26.4091C41.2384 26.2856 41.9355 26.3641 42.6066 26.6445C43.2792 26.9137 43.8745 27.384 44.3925 28.0554C44.9106 28.7268 45.2169 29.425 45.3117 30.1502C45.4079 30.8642 45.3069 31.5584 45.009 32.2329C44.7061 32.9012 44.2158 33.4967 43.5381 34.0196ZM49.056 30.0465L48.4223 28.9714L52.0717 26.8207L52.7054 27.8958L49.056 30.0465ZM45.4248 23.8849L44.7911 22.8098L48.4405 20.659L49.0742 21.7342L45.4248 23.8849ZM47.082 26.6969L46.4605 25.6424L49.9032 23.6136L50.5246 24.6681L47.082 26.6969ZM44.0364 23.2545L45.2357 22.5478L49.5005 29.7846L48.3013 30.4913L44.0364 23.2545ZM60.5158 21.6477L60.2733 15.6905L61.8018 15.0852L61.8672 24.5715L57.2702 20.0031L57.0474 26.4802L50.6002 19.5211L52.1287 18.9158L56.053 23.415L56.0464 16.9127L60.5158 21.6477ZM63.9997 14.4126L65.3828 14.0576L67.471 22.1939L66.0878 22.5489L63.9997 14.4126ZM74.3961 12.5687L75.7735 12.3678L77.0461 21.0955L70.1039 15.9837L70.9176 21.5647L69.5402 21.7655L68.2676 13.0378L75.2098 18.1497L74.3961 12.5687ZM79.0774 12.114L80.5174 12.1158L80.5072 20.5158L79.0672 20.514L79.0774 12.114ZM81.7792 20.5173L79.9432 20.5151L79.9448 19.1831L81.7448 19.1853C82.1608 19.1858 82.5449 19.1263 82.897 19.0067C83.2492 18.8871 83.5534 18.7075 83.8097 18.4678C84.074 18.2281 84.2783 17.9284 84.4228 17.5686C84.5752 17.2088 84.6517 16.7928 84.6523 16.3208C84.6529 15.8488 84.5774 15.4328 84.4258 15.0726C84.2822 14.7124 84.0786 14.4121 83.8149 14.1718C83.5592 13.9315 83.2554 13.7511 82.9036 13.6307C82.5517 13.5103 82.1678 13.4498 81.7518 13.4493L79.9518 13.4471L79.9534 12.1151L81.7894 12.1173C82.6454 12.1184 83.3972 12.2953 84.0448 12.6481C84.6923 12.9929 85.1958 13.4815 85.555 14.1139C85.9222 14.7384 86.1053 15.4746 86.1043 16.3226C86.1032 17.1706 85.9183 17.9104 85.5496 18.5419C85.1888 19.1655 84.6842 19.6529 84.0358 20.0041C83.3874 20.3473 82.6352 20.5184 81.7792 20.5173ZM88.5881 18.0279C88.7312 18.3681 88.8907 18.6742 89.0664 18.9459C89.2511 19.2108 89.4621 19.4265 89.6994 19.5931C89.9376 19.7517 90.2155 19.8508 90.5331 19.8903C90.9141 19.9377 91.2366 19.873 91.5004 19.6962C91.7643 19.5195 91.9164 19.2683 91.9569 18.9428C91.9955 18.6332 91.9507 18.3778 91.8226 18.1764C91.6954 17.9671 91.5048 17.7821 91.2507 17.6215C91.0055 17.454 90.7162 17.2849 90.3827 17.1145C90.1852 17.0173 89.9668 16.8934 89.7276 16.7427C89.4893 16.5841 89.2665 16.3992 89.059 16.1879C88.8524 15.9687 88.6906 15.7148 88.5733 15.4261C88.457 15.1295 88.4231 14.7867 88.4715 14.3977C88.5268 13.9531 88.6904 13.5784 88.9621 13.2736C89.2348 12.9609 89.577 12.7375 89.9887 12.6033C90.4094 12.4621 90.8698 12.4227 91.3699 12.4849C91.8621 12.5462 92.2799 12.6869 92.6234 12.9069C92.9668 13.127 93.2448 13.3874 93.4573 13.6879C93.6778 13.9894 93.8412 14.296 93.9475 14.6075L92.7243 15.1083C92.6468 14.889 92.5395 14.6822 92.4025 14.4878C92.2664 14.2854 92.0976 14.1193 91.8961 13.9894C91.7036 13.8526 91.4683 13.7669 91.1905 13.7323C90.8015 13.6839 90.5043 13.7397 90.299 13.8995C90.0947 14.0515 89.9777 14.2465 89.9481 14.4847C89.9214 14.699 89.9607 14.9014 90.066 15.0919C90.1802 15.2754 90.3669 15.4598 90.626 15.6453C90.885 15.8307 91.227 16.0304 91.6518 16.2445C91.887 16.3625 92.1193 16.5042 92.3486 16.6698C92.5859 16.8364 92.7949 17.0357 92.9756 17.2678C93.1573 17.492 93.2909 17.7464 93.3764 18.0311C93.4698 18.3169 93.4938 18.6423 93.4484 19.0075C93.4 19.3965 93.2811 19.7364 93.0917 20.0273C92.9024 20.3181 92.6633 20.5544 92.3747 20.7362C92.087 20.91 91.7696 21.0317 91.4223 21.1014C91.082 21.1799 90.7332 21.197 90.376 21.1525C89.8838 21.0913 89.4392 20.9392 89.0421 20.6963C88.654 20.4465 88.3254 20.1396 88.0563 19.7756C87.7872 19.4115 87.585 19.0276 87.4498 18.6239L88.5881 18.0279ZM99.876 20.0646C99.9578 20.4246 100.062 20.7536 100.188 21.0518C100.323 21.3447 100.494 21.5938 100.699 21.799C100.906 21.9966 101.162 22.1424 101.468 22.2365C101.835 22.3494 102.164 22.3417 102.454 22.2134C102.745 22.0852 102.938 21.8643 103.035 21.5508C103.126 21.2525 103.127 20.9932 103.035 20.7726C102.947 20.5444 102.791 20.3292 102.569 20.1269C102.356 19.9193 102.101 19.7026 101.802 19.4768C101.624 19.3468 101.431 19.1868 101.221 18.9969C101.014 18.7993 100.827 18.5785 100.659 18.3344C100.494 18.0827 100.379 17.8045 100.313 17.4998C100.25 17.1875 100.276 16.844 100.392 16.4693C100.523 16.0411 100.749 15.7006 101.07 15.4476C101.393 15.187 101.769 15.0264 102.197 14.9657C102.636 14.8998 103.096 14.9409 103.578 15.089C104.052 15.2348 104.439 15.4459 104.739 15.7223C105.039 15.9987 105.268 16.3034 105.425 16.6362C105.59 16.9715 105.697 17.3017 105.748 17.627L104.456 17.9077C104.418 17.6783 104.348 17.456 104.247 17.2408C104.148 17.0179 104.011 16.825 103.835 16.6621C103.669 16.4939 103.452 16.3686 103.185 16.2863C102.81 16.1711 102.508 16.1744 102.278 16.2961C102.05 16.4103 101.901 16.5821 101.831 16.8115C101.767 17.0179 101.771 17.2241 101.841 17.4299C101.922 17.6305 102.074 17.8445 102.297 18.0721C102.52 18.2997 102.822 18.5558 103.203 18.8404C103.414 18.9975 103.618 19.1774 103.815 19.3803C104.02 19.5855 104.191 19.8181 104.329 20.0781C104.469 20.3304 104.556 20.6042 104.591 20.8994C104.633 21.197 104.6 21.5217 104.492 21.8735C104.377 22.2481 104.201 22.5623 103.964 22.8158C103.727 23.0693 103.45 23.2605 103.135 23.3894C102.821 23.5106 102.487 23.5753 102.133 23.5836C101.785 23.6019 101.438 23.5581 101.094 23.4523C100.62 23.3065 100.208 23.0795 99.8596 22.7714C99.5208 22.4579 99.2505 22.0986 99.0487 21.6934C98.8469 21.2882 98.7145 20.875 98.6515 20.4539L99.876 20.0646ZM108.061 21.3079C107.817 21.8474 107.724 22.3756 107.78 22.8926C107.843 23.4128 108.021 23.8749 108.312 24.2788C108.614 24.6787 108.999 24.9841 109.465 25.1949C109.83 25.3596 110.179 25.4605 110.513 25.4975C110.848 25.5345 111.168 25.5255 111.474 25.4706C111.79 25.4116 112.082 25.3196 112.349 25.1946L111.657 26.7255C111.218 26.843 110.781 26.887 110.347 26.8575C109.912 26.828 109.414 26.6864 108.853 26.4327C108.292 26.179 107.81 25.847 107.407 25.4368C107.011 25.0298 106.716 24.567 106.52 24.0483C106.324 23.5297 106.233 22.9837 106.246 22.4103C106.27 21.8329 106.412 21.2562 106.672 20.6803C106.933 20.1044 107.27 19.6203 107.684 19.2281C108.109 18.8319 108.581 18.5359 109.1 18.3401C109.618 18.1444 110.161 18.0604 110.728 18.0883C111.302 18.1195 111.87 18.2619 112.431 18.5156C112.992 18.7693 113.427 19.0494 113.737 19.3559C114.046 19.6624 114.302 20.0194 114.504 20.4268L113.812 21.9577C113.729 21.6745 113.604 21.3984 113.436 21.1293C113.278 20.8562 113.075 20.6064 112.826 20.3798C112.577 20.1533 112.271 19.9576 111.906 19.7929C111.44 19.5821 110.955 19.499 110.452 19.5438C109.959 19.5846 109.497 19.7532 109.065 20.0494C108.643 20.3416 108.308 20.7611 108.061 21.3079ZM115.63 25.3823L116.33 24.2775L121.388 27.4833L120.688 28.5881L115.63 25.3823ZM122.352 24.2585L123.548 25.0166L119.051 32.1114L117.855 31.3533L122.352 24.2585ZM117.588 21.239L118.784 21.9971L114.287 29.0919L113.091 28.3338L117.588 21.239ZM124.27 30.851C123.893 31.2857 123.645 31.7539 123.527 32.2555C123.42 32.7563 123.445 33.245 123.604 33.7216C123.762 34.1982 124.049 34.6176 124.466 34.9798C124.888 35.3471 125.344 35.5733 125.831 35.6583C126.325 35.7485 126.81 35.7033 127.285 35.5226C127.771 35.3412 128.203 35.0331 128.581 34.5984C128.959 34.1636 129.205 33.6985 129.317 33.2029C129.435 32.7013 129.415 32.2122 129.257 31.7356C129.105 31.2642 128.815 30.8422 128.386 30.4696C127.97 30.1074 127.514 29.8813 127.02 29.7911C126.526 29.7009 126.036 29.7465 125.55 29.9279C125.075 30.1086 124.648 30.4163 124.27 30.851ZM123.138 29.8669C123.553 29.3899 124.015 29.023 124.524 28.7663C125.034 28.5095 125.562 28.3648 126.11 28.3321C126.669 28.2987 127.219 28.3737 127.759 28.5571C128.305 28.7457 128.811 29.0421 129.276 29.4462C129.753 29.8608 130.12 30.3228 130.376 30.8323C130.633 31.3417 130.781 31.8729 130.82 32.4259C130.87 32.9781 130.803 33.5244 130.619 34.0646C130.436 34.6048 130.137 35.1133 129.722 35.5903C129.313 36.0613 128.851 36.4281 128.336 36.691C127.822 36.9538 127.288 37.1045 126.735 37.1432C126.182 37.1819 125.63 37.1099 125.078 36.9273C124.538 36.7439 124.029 36.4449 123.552 36.0303C123.081 35.6209 122.715 35.1589 122.452 34.6443C122.194 34.1236 122.046 33.5867 122.007 33.0337C121.975 32.4859 122.053 31.9389 122.241 31.3927C122.43 30.8464 122.729 30.3378 123.138 29.8669ZM131.946 37.993C131.506 38.3638 131.188 38.7878 130.994 39.265C130.81 39.7432 130.76 40.23 130.842 40.7254C130.924 41.2208 131.143 41.6796 131.499 42.102C131.859 42.5306 132.274 42.8246 132.743 42.9843C133.217 43.15 133.702 43.1805 134.2 43.0758C134.708 42.972 135.183 42.7347 135.624 42.3639C136.064 41.993 136.379 41.5716 136.567 41.0995C136.762 40.6223 136.818 40.136 136.736 39.6406C136.658 39.1514 136.437 38.6894 136.071 38.2548C135.716 37.8324 135.301 37.5383 134.827 37.3726C134.353 37.2068 133.862 37.1758 133.353 37.2796C132.856 37.3844 132.387 37.6222 131.946 37.993ZM130.981 36.8452C131.464 36.4383 131.978 36.1475 132.521 35.9729C133.064 35.7983 133.608 35.7373 134.155 35.7901C134.712 35.8438 135.243 36.0032 135.749 36.2681C136.259 36.5392 136.712 36.9105 137.109 37.3818C137.516 37.8654 137.807 38.3788 137.981 38.9219C138.156 39.465 138.219 40.0127 138.172 40.565C138.136 41.1183 137.985 41.6475 137.72 42.1527C137.455 42.6579 137.081 43.114 136.597 43.5208C136.12 43.9226 135.606 44.2133 135.057 44.3931C134.508 44.5729 133.957 44.639 133.405 44.5914C132.852 44.5438 132.318 44.387 131.801 44.1211C131.296 43.8561 130.84 43.4818 130.433 42.9982C130.032 42.5207 129.741 42.0073 129.561 41.4581C129.387 40.9038 129.324 40.3504 129.372 39.7981C129.425 39.2519 129.587 38.7236 129.858 38.2133C130.129 37.7029 130.503 37.2469 130.981 36.8452ZM141.365 42.9384L142.137 44.1251L136.164 48.0144L137.984 50.8101L136.918 51.5041L134.325 47.5219L141.365 42.9384Z" fill="#16304A"/>
</g>
<defs>
<linearGradient id="paint0_linear_204_997" x1="63.9916" y1="92.815" x2="63.1461" y2="87.8919" gradientUnits="userSpaceOnUse">
<stop stop-color="#2B4F69"/>
<stop offset="1" stop-color="#416A83"/>
</linearGradient>
<linearGradient id="paint1_linear_204_997" x1="54.2311" y1="68.5709" x2="51.2764" y2="71.5601" gradientUnits="userSpaceOnUse">
<stop stop-color="#2D536C"/>
<stop offset="1" stop-color="#3F6E85"/>
</linearGradient>
<clipPath id="clip0_204_997">
<rect width="165" height="165" fill="white"/>
</clipPath>
</defs>
</svg>
